<svg width="415" height="641" viewBox="0 0 415 641" fill="none" xmlns="http://www.w3.org/2000/svg">
<g filter="url(#filter0_d_0_1)">
<rect x="9" y="2" width="381" height="607" fill="white"/>
</g>
<path d="M300.382 375.506V375.925C300.382 376.929 300.382 376.486 300.382 374.595C300.392 372.774 300.392 372.26 300.382 373.054C300.382 373.736 300.382 373.333 300.382 371.845C300.394 370.288 300.397 369.953 300.382 370.848C300.382 370.181 300.399 369.516 300.409 368.849C300.392 369.111 300.377 370.393 300.409 369.194C300.434 368.072 300.409 369.097 300.409 369.333C300.409 369.684 300.384 370.034 300.367 370.38C300.337 371.078 300.294 371.777 300.245 372.473C300.262 372.256 300.277 372.039 300.294 371.824C299.846 377.803 298.622 383.811 295.348 388.925C292.533 393.323 288.384 396.835 283.303 398.248C283.104 398.303 283.169 404.321 283.176 403.57C283.131 407.854 283.121 412.14 283.124 416.424C283.126 420.708 283.124 424.991 283.176 429.275C283.176 429.819 283.4 434.571 283.303 434.6C289.921 432.768 294.88 427.388 297.506 421.181C299.078 417.463 299.828 413.436 300.195 409.429C300.927 401.385 300.693 393.224 300.723 385.159C300.733 380.491 300.726 375.822 300.703 371.154C300.688 368.393 300.76 365.562 300.596 362.802C300.578 362.584 300.564 362.367 300.546 362.153C300.474 362.977 300.444 363.805 300.456 364.633C300.392 368.252 300.382 371.876 300.372 375.495" fill="#653669"/>
<path d="M282.683 432.504C282.683 432.855 282.683 433.203 282.683 433.551C282.683 434.927 282.683 433.83 282.683 430.259L282.705 427.422C282.69 429.052 282.75 424.805 282.725 426.054C282.725 426.506 282.643 427.679 282.725 425.695C282.66 427.098 282.62 428.498 282.521 429.898C282.538 429.68 282.553 429.463 282.568 429.249C282.12 435.063 280.956 440.917 277.874 445.951C275.235 450.264 271.328 453.817 266.412 455.254C266.205 455.314 266.275 461.322 266.282 460.576C266.237 464.86 266.227 469.146 266.23 473.43C266.232 477.713 266.23 481.997 266.282 486.281C266.282 486.828 266.531 491.574 266.412 491.606C272.943 489.696 277.625 484.101 280.042 477.923C281.537 474.129 282.204 470.073 282.533 466.019C283.181 458.104 282.992 450.094 283.009 442.165C283.022 437.497 283.017 432.828 282.992 428.16C282.974 425.399 283.049 422.568 282.885 419.807C282.867 419.59 282.852 419.373 282.835 419.158C282.763 419.983 282.732 420.811 282.743 421.639C282.68 425.258 282.668 428.88 282.66 432.501" fill="#653669"/>
<path d="M314.126 337.796C314.223 338.937 314.315 340.077 314.403 341.216C314.385 340.999 314.37 340.782 314.353 340.567C314.453 341.922 314.54 343.281 314.602 344.639C314.602 344.926 314.622 345.212 314.634 345.497C314.649 346.036 314.644 345.783 314.617 344.738L314.644 314.512C314.615 315.221 314.582 315.933 314.535 316.642C314.55 316.425 314.567 316.21 314.582 315.993C313.835 325.445 309.501 335.357 300.05 338.89C299.819 338.976 299.916 344.908 299.923 344.212C299.878 348.496 299.868 352.779 299.871 357.066C299.873 361.352 299.871 365.633 299.923 369.916C299.923 370.482 300.212 375.181 300.05 375.242C306.803 372.719 311.395 366.494 313.334 359.714C313.927 357.586 314.321 355.403 314.512 353.195C315.066 347.216 314.876 341.158 314.894 335.158C314.926 323.906 315.071 312.654 314.131 301.444C314.271 303.106 314.021 305.16 314.004 306.769C313.959 311.053 313.949 315.336 313.949 319.62C313.949 323.904 313.949 328.19 314.004 332.473C314.024 334.242 313.984 336.032 314.131 337.796" fill="#653669"/>
<path d="M161.505 206.32C160.478 220.042 159.449 233.775 158.712 247.518C157.563 268.915 157.441 290.328 157.551 311.749C157.63 327.256 157.927 342.778 159.713 358.196C161.054 369.759 163.092 381.349 166.655 392.452C168.25 397.424 170.164 402.33 172.708 406.896C174.744 410.56 177.22 414.051 180.487 416.704C180.537 416.182 180.56 415.658 180.557 415.134C180.59 413.881 180.609 412.628 180.614 411.374C180.661 407.09 180.669 402.806 180.669 398.523C180.669 394.239 180.669 389.953 180.614 385.669C180.601 384.722 180.589 383.775 180.579 382.828C180.59 381.999 180.559 381.171 180.487 380.347C174.552 375.524 171.018 368.072 168.387 361.067C164.702 351.306 162.492 340.999 160.912 330.712C159.885 324.045 159.168 317.333 158.669 310.608C158.684 310.825 158.699 311.04 158.717 311.257C158.501 308.291 158.325 305.318 158.188 302.336C158.124 300.904 158.066 299.474 158.017 298.045C157.992 297.325 157.969 296.608 157.947 295.889C157.934 295.459 157.924 295.028 157.912 294.596C157.875 293.233 157.944 296.166 157.912 294.698C157.897 293.976 157.883 293.254 157.87 292.531C157.87 292.17 157.87 291.809 157.852 291.448C157.832 290.124 157.887 294.567 157.87 292.769V292.335C157.86 291.433 157.86 291.756 157.87 293.303C157.87 293.772 157.87 294.24 157.882 294.706V293.834L157.897 297.307C157.897 296.211 157.897 296.725 157.897 298.848C157.897 300.971 157.897 301.486 157.897 300.392C157.897 304.495 157.897 305.668 157.897 303.912C157.897 301.795 157.88 307.486 157.897 306.942C157.897 306.795 157.897 306.649 157.897 306.505C157.907 305.132 157.901 305.917 157.88 308.86V307.983C157.88 307.837 157.88 307.69 157.88 307.544C157.893 306.45 157.886 306.958 157.86 309.069C157.884 307.455 157.914 305.842 157.947 304.228C157.947 303.817 158.022 302.899 157.934 304.752C157.954 304.312 157.957 303.867 157.967 303.427C157.987 302.692 158.007 301.954 158.029 301.219C158.077 299.67 158.13 298.121 158.186 296.572C158.296 293.54 158.425 290.506 158.575 287.471C158.875 281.23 159.235 274.991 159.654 268.753C160.11 261.766 160.618 254.785 161.149 247.801C161.134 248.018 161.119 248.235 161.101 248.45C161.246 246.531 161.39 244.606 161.532 242.674C161.983 236.656 161.717 230.522 161.714 224.496C161.714 220.212 161.714 215.929 161.662 211.645C161.642 209.907 161.413 208.044 161.532 206.32" fill="#653669"/>
<path d="M223.263 185.299C237.878 195.49 251.708 206.87 264.625 219.336C271.024 225.516 277.17 231.941 283.064 238.611C288.852 245.134 294.583 251.817 299.318 259.149C304.777 267.602 308.358 276.854 309.13 286.937L309.093 286.45C309.13 286.989 309.165 287.528 309.187 288.067C309.2 288.329 309.212 288.606 309.22 288.876C309.065 281.653 309.065 274.43 309.22 267.204C309.25 265.783 309.195 267.596 309.182 267.858C309.155 268.4 309.118 268.939 309.08 269.48C309.08 269.318 309.103 269.156 309.115 268.994C307.685 287.337 299.103 303.812 289.127 318.906C286.278 323.213 283.316 327.441 280.353 331.67C280.316 332.06 280.298 332.451 280.301 332.842C280.276 333.783 280.262 334.723 280.258 335.663C280.224 338.874 280.216 342.087 280.219 345.301C280.221 348.514 280.219 351.727 280.258 354.941L280.286 357.073C280.276 357.694 280.298 358.316 280.353 358.934C288.75 346.955 297.222 334.839 302.883 321.253C305.657 314.609 307.69 307.646 308.664 300.494C309.511 294.292 309.412 288.017 309.432 281.774C309.452 275.18 309.561 268.557 309.282 261.968C309.207 260.188 309.063 258.409 308.841 256.64C307.04 242.355 299.123 230.441 290.153 219.587C280.981 208.507 271.14 198.057 260.691 188.304C250.201 178.495 239.133 169.391 227.551 161.047C226.136 160.027 224.712 159.019 223.28 158.022C223.392 158.101 223.178 162.531 223.185 162.016C223.15 165.229 223.143 168.442 223.145 171.656C223.148 174.869 223.145 178.083 223.185 181.293C223.185 182.005 223.203 182.714 223.213 183.426C223.204 184.047 223.226 184.668 223.28 185.286" fill="#1D1D1B"/>
<path d="M202.32 376.236C220.596 387.522 227.91 409.469 229.479 429.916C229.479 429.751 229.454 429.589 229.445 429.427C229.502 430.267 229.557 431.107 229.596 431.947C229.616 432.365 229.634 432.786 229.649 433.205L229.671 433.836C229.595 430.504 229.595 427.173 229.671 423.842C229.643 420.528 229.643 417.213 229.671 413.899C229.671 413.739 229.671 413.823 229.671 414.16C229.654 414.582 229.639 415 229.619 415.422C229.577 416.366 229.517 417.311 229.449 418.256L229.487 417.769C227.132 448.547 211.439 477.528 187.855 497.266C181.459 502.609 174.307 506.053 165.878 506.184C157.947 506.254 150.146 504.065 143.305 499.851C129.053 491.08 120.132 475.141 113.581 460.213C105.922 442.741 101.796 423.945 100.375 404.957C100.375 405.12 100.4 405.282 100.41 405.444C100.258 403.283 100.131 401.119 100.044 398.952C100.004 397.978 99.9741 397.002 99.9467 396.026C99.9467 395.919 99.8969 394.676 99.9467 395.608C100.159 400.718 100.086 406.454 99.9467 411.57C100.064 407.435 100.243 403.309 100.545 399.18C100.532 399.342 100.522 399.504 100.51 399.669C103.56 359.528 116.265 321.025 128.666 282.999C141.342 244.085 154.05 204.666 156.626 163.544C157.149 155.23 157.164 146.896 157.177 138.57C157.189 129.319 157.271 120.04 156.713 110.801C156.054 99.3754 154.321 88.0466 151.541 76.9791C151.79 77.9159 151.453 80.2265 151.446 80.9723C151.411 84.1856 151.403 87.399 151.406 90.6124C151.408 93.8257 151.406 97.0391 151.446 100.25C151.458 101.493 151.237 103.045 151.541 104.243C154.093 114.375 155.761 124.731 156.524 135.181L156.487 134.694C156.638 136.824 156.758 138.956 156.848 141.089C156.883 141.962 156.912 142.838 156.935 143.719C157.043 149.785 157.043 144.785 156.935 128.72C156.935 128.061 156.935 128.019 156.935 128.595C156.793 132.556 156.626 136.51 156.332 140.467C156.345 140.304 156.357 140.142 156.367 139.977C152.879 184.985 137.639 227.754 123.892 270.396C117.037 291.66 110.492 313.075 105.927 334.967C103.765 345.173 102.143 355.496 101.068 365.889C99.6178 380.352 99.6552 394.872 99.715 409.393C99.8072 431.206 101.487 452.7 108.287 473.561C111.427 483.233 115.53 492.53 120.528 501.298C125.263 509.599 130.854 517.608 138.369 523.637C145.78 529.58 154.972 533.259 164.52 533.453C169.239 533.547 173.989 532.746 178.312 530.802C182.757 528.798 186.584 525.707 190.202 522.489C203.892 510.308 214.845 495.06 221.713 478.046C226.686 465.851 229.412 452.778 229.749 439.517C230.05 428.574 230.13 417.536 229.704 406.609C229.028 389.406 224.563 370.819 212.805 357.712C209.721 354.294 206.191 351.354 202.32 348.98C202.412 349.037 202.217 353.517 202.225 352.973C202.19 356.186 202.182 359.4 202.182 362.613C202.182 365.826 202.182 369.04 202.225 372.251C202.225 372.808 201.956 376.019 202.32 376.244" fill="#1D1D1B"/>
<path d="M258.952 323.495C268.744 336.323 276.759 350.541 282.758 365.727C284.502 370.155 285.96 374.713 286.368 379.475C286.368 379.313 286.343 379.151 286.333 378.989C286.363 379.405 286.383 379.821 286.403 380.24C286.403 372.145 286.403 364.051 286.403 355.959C286.403 356.22 286.381 356.461 286.363 356.712C286.363 356.55 286.386 356.388 286.398 356.226C285.13 372.897 270.805 383.701 258.334 392.659C258.085 392.839 258.234 397.008 258.237 396.652C258.202 399.865 258.194 403.079 258.197 406.289C258.199 409.5 258.197 412.716 258.237 415.929L258.264 418.062C258.256 418.683 258.28 419.304 258.334 419.923C270.239 411.366 283.782 401.304 286.149 385.727C286.757 381.742 286.568 377.615 286.585 373.603C286.608 368.004 286.61 362.406 286.538 356.807C286.518 355.134 286.493 353.462 286.338 351.795C285.962 347.75 284.781 343.827 283.366 340.036C280.576 332.665 277.276 325.519 273.494 318.654C269.198 310.801 264.337 303.305 258.952 296.231C258.914 296.622 258.897 297.014 258.899 297.406C258.875 298.346 258.862 299.285 258.857 300.225C258.822 303.438 258.815 306.651 258.817 309.865C258.82 313.078 258.817 316.289 258.857 319.502C258.857 320.214 258.875 320.923 258.885 321.635C258.876 322.256 258.898 322.877 258.952 323.495Z" fill="#1D1D1B"/>
<path d="M177.689 91.8527C176.037 101.406 175.773 111.002 175.695 120.679C175.611 131.612 175.601 142.55 175.763 153.482C175.798 155.866 175.852 158.25 175.969 160.634C176.154 164.41 176.468 168.186 176.911 171.941C178.656 186.681 182.361 201.136 187.127 215.172C191.964 229.426 197.934 243.255 204.111 256.967C210.271 270.637 216.645 284.215 222.341 298.089C228.037 311.963 232.995 326.12 236.474 340.695C236.907 342.511 237.318 344.332 237.705 346.156C237.76 345.571 237.786 344.983 237.782 344.395C237.82 342.984 237.843 341.574 237.849 340.167C237.899 335.349 237.909 330.527 237.909 325.709C237.909 320.892 237.909 316.069 237.849 311.249C237.834 310.185 237.82 309.119 237.807 308.051C237.819 307.119 237.785 306.187 237.705 305.259C232.472 280.625 222.799 257.373 212.473 234.497C202.17 211.687 191.343 189.005 184.152 164.962C180.166 151.638 177.283 137.955 176.249 124.068L176.301 124.8C176.206 123.458 176.124 122.115 176.052 120.773C176.024 120.137 175.997 119.501 175.977 118.865C175.977 118.546 175.932 117.225 175.977 118.625C176.012 120.077 175.977 118.606 175.977 118.381C175.989 127.955 176 137.529 176.012 147.103L175.982 149.458C176.007 147.904 175.935 150.965 175.964 150.036C175.984 149.398 176.004 148.762 176.029 148.126C176.089 146.711 176.172 145.296 176.278 143.882C176.259 144.125 176.241 144.368 176.224 144.614C176.528 140.639 177.018 136.686 177.694 132.758C178.013 130.926 177.818 128.547 177.838 126.768C177.888 121.948 177.908 117.129 177.898 112.31C177.898 107.49 177.898 102.67 177.838 97.8503C177.823 96.7862 177.809 95.7203 177.796 94.6526C177.808 93.7207 177.774 92.7888 177.694 91.8606" fill="#1D1D1B"/>
<path d="M101.923 431.214C101.259 412.105 100.587 392.994 99.9072 373.881C99.7161 368.473 99.5251 363.055 99.3341 357.628C99.3166 357.06 99.2992 356.979 99.2793 357.385C99.2365 357.923 99.2199 358.462 99.2294 359.002C99.1771 361.718 99.1746 364.434 99.1671 367.151C99.1671 372.735 99.065 378.335 99.2618 383.919L101.28 441.252C101.469 446.668 101.66 452.086 101.851 457.504C101.868 458.072 101.888 458.153 101.906 457.748C101.948 457.21 101.965 456.67 101.955 456.131C102.008 453.414 102.013 450.698 102.018 447.982C102.033 442.398 102.12 436.795 101.923 431.214Z" fill="#1D1D1B"/>
<path d="M100.009 438.488C100.009 434.002 100.001 429.515 99.9842 425.028C99.9427 430.785 99.8995 436.536 99.8546 442.283C100.186 446.435 100.828 450.553 101.776 454.6V427.336C99.3912 422.126 98.2375 416.521 97.789 410.832C97.789 410.994 97.8114 411.156 97.8239 411.319C97.7765 410.651 97.7317 409.987 97.6993 409.319C97.6818 408.917 97.6669 408.516 97.6519 408.113C97.627 407.485 97.6519 407.888 97.6519 408.281C97.7001 411.818 97.7001 415.357 97.6519 418.897C97.5872 428.317 97.5872 431.283 97.6519 427.794C97.6519 428.192 97.6295 428.579 97.6519 427.953C97.6769 427.213 97.7043 426.47 97.7367 425.729C97.8613 422.971 98.0556 420.218 98.2574 417.468C98.2574 417.63 98.235 417.793 98.2226 417.955C99.0648 406.642 99.9086 395.33 100.754 384.021C101.091 379.512 100.894 374.907 100.891 370.388C100.891 367.174 100.891 363.961 100.851 360.747C100.836 359.489 100.575 357.984 100.754 356.757C99.6744 364.122 98.5946 371.488 97.5149 378.855C96.6627 384.712 96.5456 390.468 96.5182 396.388C96.4808 405.25 96.1395 414.197 97.2034 423.018C97.7018 427.205 98.2425 431.376 98.7633 435.555C98.6486 434.629 98.833 433.572 98.8455 432.63C98.8779 430.274 98.8903 427.919 98.8953 425.549C98.9078 420.417 98.9452 415.283 98.833 410.154C98.7417 405.903 98.6486 401.652 98.554 397.4C98.5639 396.779 98.5414 396.158 98.4867 395.54C97.926 399.224 98.0182 402.977 97.9883 406.69C97.951 412.462 97.9485 418.237 98.0108 424.013C98.0307 425.931 98.0332 427.851 98.1777 429.769C98.4735 433.746 99.4981 437.626 101.195 441.194C101.233 440.805 101.25 440.413 101.248 440.022C101.272 439.082 101.287 438.14 101.292 437.201C101.325 433.99 101.332 430.774 101.332 427.563C101.332 424.353 101.332 421.137 101.292 417.923C101.277 416.644 101.444 415.184 101.195 413.93L95.2748 383.992C95.2452 384.38 95.2352 384.77 95.2449 385.159C95.22 386.098 95.2059 387.037 95.2026 387.977C95.1677 391.191 95.1602 394.404 95.1627 397.617C95.1652 400.831 95.1627 404.044 95.2026 407.255C95.2175 408.537 95.0506 409.995 95.2973 411.248L101.218 441.186V413.922C99.5577 410.427 98.5432 406.633 98.2275 402.741L98.2649 403.228C98.2425 402.966 98.2275 402.704 98.2126 402.427C98.0232 398.048 98.0174 401.894 98.1952 413.964C98.0124 426.036 98.0191 429.883 98.2151 425.504C98.2267 425.237 98.2442 424.97 98.2674 424.703L98.23 425.19C98.2998 424.389 98.392 423.594 98.5141 422.798C98.4925 422.179 98.4692 421.559 98.4443 420.938C98.5374 425.187 98.6304 429.438 98.7234 433.689L98.7907 408.286C98.098 402.72 97.2408 397.144 96.7973 391.539L96.8347 392.025C96.8147 391.73 96.7923 391.437 96.7749 391.141L96.7524 390.696C96.5697 386.392 96.5631 390.112 96.7325 401.854C96.5664 413.525 96.5664 417.319 96.7325 413.237C96.7325 413.09 96.7325 412.944 96.7549 412.8C96.7749 412.433 96.7998 412.07 96.8272 411.706L96.7898 412.193C97.176 407.483 98.0033 402.82 98.6885 398.154C99.3812 393.444 100.073 388.726 100.764 384V356.746C99.9784 367.252 99.1943 377.759 98.4119 388.268C98.0257 393.454 97.647 398.635 97.5348 403.837C97.348 412.672 97.3878 421.519 97.5024 430.353C97.5398 433.339 97.6171 436.319 97.8961 439.292C98.3945 444.57 99.5706 449.759 101.783 454.6C101.821 454.209 101.838 453.817 101.836 453.425C101.86 452.485 101.875 451.545 101.878 450.607C101.913 447.393 101.92 444.18 101.918 440.966C101.915 437.753 101.918 434.542 101.878 431.329C101.865 430.073 102.067 428.555 101.783 427.336C100.836 423.29 100.193 419.171 99.8621 415.019C100.002 416.769 99.7674 418.63 99.755 420.391C99.7226 424.353 99.7226 428.315 99.7301 432.276L99.7525 445.734C99.7525 448.45 99.7525 451.167 99.8173 453.883C99.7998 453.032 99.8173 457.023 99.9219 455.257C100.218 449.693 100.027 444.052 100.017 438.488" fill="#1D1D1B"/>
<path d="M99.2591 415.833C99.4585 415.833 99.4659 388.569 99.2591 388.569C99.0523 388.569 99.0523 415.833 99.2591 415.833Z" fill="#1D1D1B"/>
<path d="M99.259 388.561H96.1692C96.0945 388.561 96.0646 393.182 96.0721 392.554C96.0372 395.767 96.0297 398.981 96.0322 402.194C96.0347 405.407 96.0322 408.621 96.0721 411.832C96.0721 412.227 96.0895 415.825 96.1692 415.825H99.259C99.3337 415.825 99.3611 411.206 99.3562 411.832C99.3885 408.621 99.396 405.405 99.396 402.194C99.396 398.983 99.396 395.767 99.3562 392.554C99.3562 392.159 99.3387 388.561 99.259 388.561Z" fill="#1D1D1B"/>
<path d="M224.436 439.347H228.453C228.652 439.347 228.66 412.083 228.453 412.083H224.436C224.235 412.083 224.227 439.347 224.436 439.347Z" fill="#1D1D1B"/>
<path d="M226.895 399.727C225.939 399.147 224.9 398.734 223.818 398.504C223.781 398.895 223.763 399.287 223.766 399.679C223.741 400.618 223.726 401.557 223.721 402.498C223.686 405.711 223.681 408.924 223.681 412.135C223.681 415.346 223.681 418.562 223.721 421.775L223.748 423.908C223.741 424.529 223.764 425.15 223.818 425.768C224.903 425.996 225.945 426.406 226.905 426.983C226.943 426.592 226.96 426.2 226.958 425.808C226.983 424.869 226.998 423.93 227.003 422.989C227.035 419.779 227.042 416.563 227.042 413.352C227.042 410.141 227.043 406.925 227.003 403.712L226.975 401.579C226.983 400.958 226.96 400.337 226.905 399.719" fill="#1D1D1B"/>
<path d="M224.436 448.628H225.981C226.019 448.238 226.036 447.846 226.034 447.453C226.058 446.515 226.073 445.575 226.076 444.635C226.111 441.422 226.118 438.208 226.116 434.995C226.113 431.782 226.116 428.568 226.076 425.355L226.048 423.225C226.058 422.604 226.036 421.983 225.981 421.364H224.436C224.399 421.754 224.381 422.145 224.381 422.537C224.36 423.477 224.346 424.416 224.339 425.355C224.304 428.568 224.297 431.782 224.299 434.995C224.302 438.208 224.299 441.422 224.339 444.635L224.367 446.765C224.359 447.387 224.382 448.009 224.436 448.628Z" fill="#1D1D1B"/>
<path d="M227.526 444.298C227.726 444.298 227.733 417.034 227.526 417.034C227.319 417.034 227.319 444.298 227.526 444.298Z" fill="#1D1D1B"/>
<path d="M197.854 374.629C198.731 374.648 199.596 374.854 200.395 375.234C201.194 375.615 201.91 376.162 202.501 376.843C202.539 376.453 202.556 376.06 202.554 375.668C202.579 374.73 202.594 373.79 202.599 372.85C202.631 369.636 202.638 366.423 202.638 363.21C202.638 359.996 202.638 356.783 202.599 353.572L202.571 351.44C202.579 350.819 202.556 350.198 202.501 349.579C201.91 348.898 201.194 348.351 200.395 347.97C199.596 347.59 198.731 347.384 197.854 347.365C197.742 347.365 197.72 359.981 197.72 360.996C197.72 364.209 197.72 367.423 197.76 370.636C197.76 371.031 197.76 374.627 197.854 374.629Z" fill="#1D1D1B"/>
<path d="M197.543 380.781C215.82 392.065 223.133 414.014 224.703 434.459C224.703 434.296 224.678 434.134 224.668 433.972C224.725 434.809 224.78 435.649 224.82 436.489C224.84 436.91 224.855 437.329 224.872 437.75L224.895 438.378C224.818 435.05 224.818 431.719 224.895 428.385C224.868 425.071 224.868 421.756 224.895 418.441C224.895 418.279 224.895 418.366 224.895 418.703C224.877 419.122 224.862 419.543 224.842 419.962C224.8 420.909 224.74 421.851 224.673 422.796L224.71 422.309C222.356 453.09 206.663 482.07 183.078 501.806C176.697 507.147 169.553 510.59 161.124 510.721C153.193 510.792 145.393 508.604 138.551 504.391C124.296 495.62 115.378 479.679 108.827 464.753C101.168 447.281 97.0415 428.485 95.6212 409.497C95.6212 409.66 95.6461 409.822 95.6561 409.984C95.5041 407.823 95.377 405.659 95.2898 403.492C95.2499 402.516 95.22 401.54 95.1926 400.564C95.1926 400.459 95.1428 399.214 95.1926 400.145C95.4044 405.258 95.3321 410.992 95.1926 416.107C95.3097 411.97 95.4891 407.844 95.7906 403.717C95.7906 403.879 95.7657 404.042 95.7557 404.204C98.8056 364.065 111.511 325.563 123.912 287.533C136.603 248.627 149.298 209.209 151.879 168.087C152.403 159.773 152.418 151.436 152.428 143.11C152.428 133.859 152.525 124.58 151.967 115.343C151.307 103.918 149.575 92.5892 146.794 81.5218C147.043 82.456 146.707 84.7666 146.697 85.5149C146.664 88.7257 146.657 91.9417 146.657 95.1524C146.657 98.3632 146.657 101.579 146.697 104.793C146.712 106.033 146.49 107.587 146.794 108.786C149.347 118.918 151.015 129.273 151.777 139.724L151.74 139.237C151.893 141.367 152.013 143.499 152.101 145.632C152.136 146.509 152.164 147.385 152.188 148.249C152.296 154.318 152.296 149.319 152.188 133.252C152.188 132.59 152.188 132.548 152.188 133.127C152.049 137.088 151.882 141.042 151.588 144.996C151.588 144.834 151.613 144.672 151.623 144.51C148.134 189.518 132.895 232.283 119.148 274.926C112.291 296.192 105.748 317.605 101.183 339.497C99.0201 349.703 97.398 360.027 96.3238 370.422C94.8737 384.884 94.911 399.402 94.9708 413.925C95.063 435.738 96.7424 457.23 103.54 478.093C106.682 487.765 110.786 497.062 115.784 505.83C120.519 514.131 126.11 522.141 133.625 528.167C141.035 534.112 150.227 537.791 159.788 537.982C164.505 538.077 169.257 537.279 173.58 535.332C178.025 533.33 181.853 530.24 185.471 527.018C199.16 514.837 210.114 499.59 216.981 482.578C221.954 470.383 224.681 457.308 225.017 444.046C225.318 433.103 225.398 422.066 224.969 411.138C224.297 393.936 219.832 375.349 208.073 362.244C204.99 358.826 201.46 355.885 197.588 353.512C197.68 353.567 197.486 358.049 197.491 357.503C197.458 360.716 197.451 363.929 197.451 367.143C197.451 370.356 197.451 373.569 197.491 376.783C197.491 377.338 197.224 380.548 197.588 380.776" fill="#1D1D1B"/>
<path d="M152.188 131.745H156.362C156.561 131.745 156.569 104.481 156.362 104.481H152.188C151.989 104.481 151.982 131.745 152.188 131.745Z" fill="#1D1D1B"/>
<path d="M152.42 157.039H157.057C157.257 157.039 157.264 129.772 157.057 129.772H152.42C152.221 129.772 152.214 157.039 152.42 157.039Z" fill="#1D1D1B"/>
<path d="M154.498 145.525C154.143 145.625 153.77 145.638 153.409 145.564C153.048 145.49 152.707 145.331 152.413 145.098C152.376 145.488 152.358 145.879 152.361 146.271C152.336 147.211 152.321 148.151 152.316 149.092C152.281 152.302 152.273 155.516 152.276 158.729C152.278 161.942 152.276 165.156 152.316 168.369C152.316 169.081 152.333 169.79 152.343 170.502C152.335 171.123 152.359 171.744 152.413 172.362C152.707 172.595 153.048 172.754 153.409 172.828C153.77 172.902 154.143 172.888 154.498 172.789C154.536 172.399 154.553 172.008 154.551 171.617C154.576 170.677 154.591 169.735 154.596 168.796C154.631 165.585 154.635 162.369 154.635 159.158C154.635 155.947 154.635 152.731 154.596 149.518C154.596 148.806 154.578 148.097 154.568 147.385C154.576 146.764 154.553 146.143 154.498 145.525Z" fill="#1D1D1B"/>
<path d="M152.866 154.885L151.252 154.401C151.215 154.79 151.196 155.182 151.197 155.573C151.175 156.513 151.161 157.453 151.155 158.391C151.12 161.605 151.112 164.818 151.115 168.032C151.117 171.245 151.115 174.458 151.155 177.672C151.155 178.381 151.172 179.093 151.182 179.802C151.174 180.424 151.197 181.045 151.252 181.665L152.866 182.149C152.904 181.759 152.921 181.366 152.919 180.974C152.944 180.034 152.959 179.094 152.964 178.156C152.998 174.942 153.006 171.729 153.003 168.516C153.001 165.302 153.003 162.089 152.964 158.876C152.964 158.166 152.946 157.455 152.936 156.746C152.944 156.124 152.921 155.503 152.866 154.885Z" fill="#1D1D1B"/>
<path d="M146.393 94.1555C146.595 94.1555 146.602 66.8915 146.393 66.8915C146.184 66.8915 146.186 94.1555 146.393 94.1555Z" fill="#1D1D1B"/>
<path d="M146.42 94.1031C147.417 94.7285 147.983 95.7255 148.498 96.7434C149.074 97.8852 149.573 99.0673 149.993 100.281C150.834 102.697 151.361 105.22 151.558 107.783C151.558 107.621 151.533 107.459 151.523 107.297C151.523 107.467 151.546 107.637 151.556 107.82C151.573 108.388 151.591 108.469 151.611 108.063C151.653 107.525 151.67 106.984 151.66 106.444C151.713 103.73 151.718 101.011 151.723 98.2978C151.723 94.7966 151.723 91.2953 151.723 87.7941C151.708 85.7007 151.765 83.6073 151.64 81.5296C151.502 78.7549 150.999 76.0136 150.145 73.3837C149.725 72.1264 149.219 70.9021 148.633 69.7202C148.092 68.6238 147.502 67.5222 146.44 66.8418C146.535 66.902 146.338 71.374 146.343 70.835C146.308 74.0483 146.301 77.2617 146.303 80.4751C146.306 83.6884 146.303 86.8992 146.343 90.1126C146.343 90.8243 146.36 91.5335 146.37 92.2452C146.363 92.8662 146.386 93.4873 146.44 94.1057" fill="#1D1D1B"/>
<path d="M146.161 108.079C146.363 108.079 146.37 80.8153 146.161 80.8153C145.952 80.8153 145.954 108.079 146.161 108.079Z" fill="#1D1D1B"/>
<path d="M146.141 108.1L147.763 109.725C147.8 109.335 147.818 108.943 147.815 108.55C147.84 107.612 147.855 106.672 147.86 105.732C147.893 102.519 147.9 99.3052 147.9 96.0919C147.9 92.8785 147.9 89.6651 147.86 86.4517L147.83 84.3217C147.84 83.7007 147.818 83.0796 147.763 82.4612L146.141 80.831C146.104 81.2205 146.086 81.6118 146.089 82.0033C146.064 82.9427 146.049 83.8847 146.044 84.8241C146.009 88.0349 146.001 91.2509 146.004 94.4616C146.006 97.6724 146.004 100.888 146.044 104.102C146.044 104.813 146.061 105.523 146.071 106.234C146.063 106.855 146.087 107.476 146.141 108.095" fill="#1D1D1B"/>
<path d="M152.43 90.0864L150.524 88.0453C150.487 88.4357 150.469 88.8279 150.472 89.2203C150.447 90.1597 150.434 91.0991 150.429 92.0385C150.395 95.2519 150.387 98.4652 150.39 101.679C150.392 104.892 150.39 108.103 150.429 111.316C150.429 112.028 150.447 112.737 150.457 113.449C150.448 114.07 150.471 114.691 150.524 115.309L152.43 117.35C152.468 116.96 152.485 116.568 152.483 116.175C152.508 115.237 152.523 114.297 152.528 113.357C152.562 110.144 152.567 106.93 152.567 103.717C152.567 100.504 152.567 97.2903 152.528 94.0796C152.528 93.3678 152.508 92.6587 152.5 91.9469C152.508 91.3259 152.485 90.7049 152.43 90.0864Z" fill="#1D1D1B"/>
<path d="M145.957 89.2595C148.025 91.5858 149.007 94.5427 149.784 97.5049C150.689 100.946 151.528 104.405 152.393 107.857C152.43 107.466 152.448 107.074 152.445 106.682C152.47 105.742 152.485 104.802 152.49 103.864C152.525 100.65 152.532 97.4369 152.53 94.2235C152.527 91.0101 152.53 87.7967 152.49 84.5834L152.463 82.4533C152.471 81.8323 152.447 81.2113 152.393 80.5928C151.526 77.1413 150.689 73.682 149.784 70.241C149.007 67.2788 148.025 64.3219 145.957 61.9956C145.919 62.3851 145.902 62.7764 145.904 63.1679C145.879 64.1082 145.865 65.0476 145.862 65.9861C145.827 69.1995 145.827 72.4129 145.827 75.6262C145.827 78.8396 145.827 82.053 145.87 85.2664C145.87 85.9755 145.887 86.6872 145.897 87.3964C145.887 88.0183 145.909 88.6402 145.964 89.2595" fill="#1D1D1B"/>
<path d="M180.632 349.833C174.111 343.6 170.999 334.831 169.633 326.091C167.976 315.483 166.912 304.731 165.918 294.044C165.332 287.727 164.822 281.402 164.351 275.078C164.366 275.295 164.383 275.509 164.398 275.727C163.02 257.2 161.986 238.658 160.366 220.155C160.317 220.676 160.293 221.2 160.297 221.725C160.263 222.975 160.243 224.228 160.237 225.482C160.192 229.766 160.182 234.052 160.184 238.336C160.187 242.619 160.184 246.903 160.237 251.187C160.257 252.956 160.212 254.748 160.366 256.512C160.782 261.279 161.165 266.05 161.518 270.823C161.503 270.606 161.485 270.391 161.47 270.174C162.691 286.638 163.648 303.121 164.981 319.578C165.651 327.86 166.419 336.134 167.358 344.39C167.835 348.566 168.356 352.737 168.923 356.903C169.376 360.198 169.71 363.482 170.45 366.732C172.097 373.98 175.185 380.993 180.632 386.19C180.681 385.668 180.704 385.144 180.701 384.62C180.733 383.367 180.753 382.115 180.761 380.862C180.806 376.579 180.816 372.292 180.813 368.009C180.811 363.725 180.813 359.442 180.761 355.158L180.724 352.316C180.734 351.487 180.703 350.658 180.632 349.833Z" fill="#653669"/>
<path d="M170.709 332.481C165.123 330.629 162.469 324.861 161.988 319.366C162.003 319.581 162.021 319.798 162.036 320.015C161.119 307.067 161.144 364.042 162.048 350.346C162.033 350.563 162.016 350.78 162.001 350.995C162.28 347.331 162.998 343.738 163.406 340.096C163.643 337.802 163.77 335.497 163.787 333.19C163.912 326.204 163.887 319.212 163.872 312.222C163.872 307.554 163.927 302.862 163.703 298.197C163.684 310.098 163.668 321.999 163.653 333.899C164.12 338.21 164.585 342.522 165.048 346.834C165.098 346.312 165.121 345.788 165.118 345.264C165.151 344.011 165.171 342.758 165.178 341.504C165.223 337.22 165.233 332.937 165.23 328.653C165.228 324.369 165.23 320.083 165.178 315.799C165.155 314.038 165.238 312.23 165.048 310.477C164.583 306.165 164.118 301.853 163.653 297.542C163.603 298.064 163.58 298.588 163.583 299.112C163.552 300.367 163.532 301.619 163.526 302.87C163.491 306.35 163.481 309.828 163.476 313.308C163.476 319.942 163.284 326.622 163.606 333.251C163.883 339.159 163.89 333.834 163.628 317.275C163.847 300.703 163.842 295.377 163.613 301.297C163.588 301.742 163.563 302.184 163.531 302.627C163.546 302.41 163.563 302.192 163.578 301.978C163.269 305.641 162.544 309.263 162.155 312.924C161.767 316.584 161.794 320.277 161.764 323.958C161.703 332.058 161.703 340.156 161.764 348.252C161.787 350.377 161.764 352.52 161.896 354.64C162.248 360.488 164.665 366.831 170.702 368.833C170.677 368.833 170.839 362.684 170.832 363.508C170.876 359.224 170.886 354.941 170.884 350.657C170.881 346.374 170.884 342.087 170.832 337.804C170.832 337.199 171.038 332.591 170.702 332.481" fill="#653669"/>
<path d="M161.41 304.956C161.084 302.752 160.842 300.541 160.663 298.322C160.678 298.539 160.693 298.754 160.71 298.971C160.568 297.045 160.481 295.119 160.411 293.191C160.391 292.432 160.391 292.597 160.411 293.685C160.411 293.39 160.399 293.091 160.394 292.796C160.394 293.445 160.411 294.104 160.418 294.745C160.403 293.372 160.409 294.152 160.436 297.084C160.467 302.157 160.467 307.233 160.436 312.311C160.411 315.246 160.405 316.025 160.418 314.651C160.418 314.502 160.418 314.352 160.418 314.206C160.418 313.908 160.418 313.609 160.418 313.314C160.433 312.216 160.428 312.718 160.401 314.818C160.401 314.371 160.401 313.926 160.418 313.481C160.418 312.578 160.443 311.678 160.458 310.775L160.546 304.681C160.657 296.775 160.77 288.871 160.884 280.971C160.994 273.405 160.992 265.838 160.959 258.273C160.947 255.376 160.947 252.477 160.884 249.583C160.869 248.97 160.854 248.361 160.842 247.751C160.809 246.887 160.776 246.887 160.745 247.751C160.511 255.39 160.278 263.028 160.047 270.666C159.82 278.113 159.895 285.581 159.92 293.023C159.92 296.645 159.92 300.266 160.002 303.888L160.047 305.72C160.08 306.586 160.109 306.586 160.142 305.72C160.376 298.082 160.609 290.444 160.842 282.805C160.796 271.731 160.749 260.653 160.703 249.572C160.329 275.478 159.611 301.434 160.266 327.342C160.353 332.014 160.724 336.675 161.378 341.297C161.427 340.775 161.451 340.251 161.448 339.727C161.481 338.474 161.501 337.222 161.507 335.969C161.552 331.686 161.562 327.4 161.56 323.116C161.557 318.832 161.56 314.546 161.507 310.262C161.487 308.522 161.634 306.662 161.378 304.94" fill="#653669"/>
<path d="M157.984 325.861H164.475C164.742 325.861 164.752 289.509 164.475 289.509H157.984C157.717 289.509 157.707 325.861 157.984 325.861Z" fill="#653669"/>
<path d="M158.448 298.945H164.017C164.283 298.945 164.293 262.593 164.017 262.593H158.448C158.181 262.593 158.171 298.945 158.448 298.945Z" fill="#653669"/>
<path d="M163.518 225.064C162.616 213.253 161.713 201.445 160.807 189.638C160.937 191.313 160.698 193.333 160.68 194.963C160.635 199.247 160.625 203.53 160.628 207.814C160.63 212.098 160.628 216.384 160.68 220.668C160.7 222.439 160.68 224.224 160.807 225.99C161.713 237.798 162.616 249.607 163.518 261.416C163.391 259.741 163.63 257.721 163.648 256.093C163.693 251.809 163.703 247.523 163.7 243.24C163.698 238.956 163.7 234.67 163.648 230.386C163.628 228.615 163.648 226.83 163.518 225.064Z" fill="#653669"/>
<path d="M163.548 271.566C163.815 271.566 163.825 235.214 163.548 235.214C163.272 235.214 163.269 271.566 163.548 271.566Z" fill="#653669"/>
<path d="M242.045 341.875C245.322 349.624 247.495 357.67 249.521 365.766C251.429 373.886 252.885 382.116 253.879 390.413C255.842 407.011 256.144 423.926 254.175 440.783C253.639 444.991 253.017 449.199 252.229 453.388C251.399 457.575 250.46 461.746 249.291 465.87C248.146 470.023 246.789 474.108 245.227 478.109C243.683 482.157 241.902 486.101 239.893 489.918C239.417 490.886 238.873 491.828 238.338 492.77C237.802 493.712 237.264 494.652 236.683 495.57C235.574 497.431 234.363 499.234 233.12 501.013C230.597 504.56 227.813 507.894 224.793 510.983C218.715 517.124 211.636 522.253 203.862 525.467L203.364 524.71C210.025 520.132 215.958 514.48 220.945 507.963C223.426 504.757 225.703 501.384 227.763 497.865C229.788 494.348 231.625 490.714 233.265 486.982C239.788 472.04 243.296 455.921 245.168 439.731C247.096 423.508 247.383 407.121 246.613 390.798C246.226 382.63 245.568 374.481 244.639 366.35C243.752 358.238 242.666 350.1 241.151 342.074L242.045 341.875Z" fill="#1D1D1B"/>
<path d="M217.851 265.275C220.056 268.031 221.947 271.019 223.768 274.041C224.73 275.536 225.513 277.108 226.382 278.649L227.628 280.984L228.802 283.367L231.097 288.148L233.177 293.021C234.61 296.26 235.764 299.594 236.98 302.915C241.674 316.26 244.953 330.069 247.176 344.013L248.549 354.514L248.86 357.131C248.96 358.008 249.005 358.889 249.079 359.769C249.209 361.527 249.361 363.283 249.468 365.044L249.812 370.319C249.939 372.078 250.041 373.836 250.031 375.6C250.086 379.125 250.099 382.647 250.089 386.166C250.089 387.925 250.103 389.683 250.019 391.442L249.715 396.715C249.5 400.226 249.241 403.733 248.967 407.231C248.848 408.979 248.579 410.725 248.349 412.465C248.12 414.205 247.868 415.948 247.584 417.698L246.765 422.903C246.446 424.635 246.172 426.365 245.818 428.087C244.958 421.066 244.594 414.116 244.059 407.189C243.73 403.725 243.421 400.271 243.157 396.822L242.778 391.651C242.653 389.929 242.402 388.213 242.25 386.496C241.888 383.06 241.547 379.632 241.253 376.202C241.128 374.485 240.879 372.782 240.675 371.073L240.044 365.952C239.354 359.112 238.24 352.345 237.303 345.541C235.141 331.994 232.644 318.516 229.469 305.141C228.647 301.808 227.915 298.437 226.978 295.127L225.672 290.121L224.242 285.149L223.547 282.648L222.777 280.172C222.258 278.524 221.78 276.844 221.242 275.201C220.704 273.557 220.195 271.877 219.592 270.247C219.052 268.58 218.444 266.947 217.831 265.294" fill="#1D1D1B"/>
<path d="M248.873 436.309C248.125 420.87 247.507 405.392 246.341 389.971C245.175 374.551 243.513 359.196 241.358 343.903C240.148 335.336 238.784 326.795 237.264 318.28C237.281 318.599 237.274 318.92 237.241 319.238C237.241 320.007 237.241 320.779 237.241 321.551C237.241 322.323 237.241 323.092 237.241 323.862C237.225 324.182 237.232 324.503 237.264 324.822C239.96 339.943 242.17 355.151 243.894 370.445C245.616 385.75 246.805 401.111 247.577 416.5C248.014 425.203 248.441 433.907 248.858 442.612C248.88 443.036 248.885 442.089 248.883 442.283C248.895 441.634 248.895 440.974 248.898 440.328C248.898 438.991 248.94 437.643 248.875 436.306" fill="#1D1D1B"/>
<path d="M238.437 476.266C249.834 423.997 243.5 369.262 227.304 318.919C217.586 288.494 204.517 259.479 192.973 229.761C203.688 252.555 214.494 275.371 223.621 298.961C239.289 338.997 248.574 382.33 246.57 425.768C245.716 442.848 243.152 459.886 238.427 476.272" fill="#1D1D1B"/>
<path d="M218.002 250.006C225.742 265.778 230.601 282.878 235.793 299.701C242.394 321.391 248.653 343.328 252.488 365.779C257.97 397.51 258.127 431.109 247.442 461.689C245.986 465.856 244.322 469.94 242.459 473.924C240.889 477.297 239.08 480.694 237.226 483.894C238.945 480.608 240.583 477.143 242.033 473.71C260.339 430.463 255.276 381.208 244.088 336.658C240.515 321.972 236.327 307.46 232.21 292.934C228.094 278.409 224.022 263.836 218.027 250.02" fill="#1D1D1B"/>
<path d="M162.808 326.855C163.317 330.9 164.254 334.872 165.601 338.699C165.644 338.849 165.736 338.979 165.861 339.064C165.986 339.15 166.136 339.187 166.284 339.167C166.433 339.147 166.57 339.07 166.67 338.952C166.769 338.833 166.824 338.681 166.825 338.523C166.673 334.19 165.995 329.894 164.809 325.74C164.787 325.658 164.75 325.58 164.7 325.512C164.65 325.445 164.587 325.388 164.516 325.346C164.445 325.303 164.366 325.276 164.285 325.265C164.204 325.255 164.122 325.261 164.043 325.284C163.964 325.307 163.89 325.346 163.826 325.398C163.761 325.451 163.707 325.517 163.667 325.592C163.626 325.666 163.6 325.749 163.59 325.834C163.58 325.919 163.586 326.006 163.608 326.089L164.729 333.986C164.831 334.708 166.023 334.546 165.953 333.811C165.576 329.757 164.849 325.748 163.78 321.834L162.579 322.182C163.595 325.728 164.154 329.402 164.241 333.104L165.464 332.931C164.34 329.389 163.499 325.754 162.95 322.064L161.749 322.412C162.437 326.209 162.901 330.047 163.14 333.905L164.301 333.572C163.21 331.132 162.63 328.475 162.601 325.78L161.378 325.955L164.515 335.763C164.764 336.548 165.905 336.239 165.716 335.415C164.994 332.243 164.621 328.994 164.605 325.733L163.381 325.908C164.508 328.867 165.314 331.95 165.783 335.098L166.984 334.75C165.665 331.441 164.615 328.021 163.845 324.526C163.665 323.705 162.472 324.053 162.644 324.874L164.774 335.022L165.913 334.52C164.375 331.856 163.407 328.873 163.075 325.777L161.914 326.107C163.266 328.254 164.197 330.662 164.655 333.19L165.793 332.685C165.111 331.098 164.771 329.371 164.797 327.63C164.797 326.79 163.551 326.787 163.551 327.63C163.532 329.602 163.93 331.554 164.717 333.345C164.794 333.48 164.915 333.581 165.059 333.63C165.202 333.678 165.357 333.67 165.494 333.606C165.634 333.542 165.747 333.428 165.813 333.284C165.879 333.14 165.894 332.976 165.856 332.821C165.376 330.183 164.404 327.67 162.998 325.426C162.927 325.304 162.82 325.209 162.693 325.154C162.567 325.1 162.427 325.09 162.295 325.126C162.163 325.164 162.047 325.246 161.965 325.36C161.882 325.474 161.837 325.613 161.836 325.756C162.175 329.09 163.202 332.306 164.846 335.179C164.925 335.312 165.046 335.412 165.188 335.46C165.331 335.507 165.484 335.5 165.622 335.439C165.759 335.378 165.872 335.267 165.938 335.127C166.005 334.987 166.021 334.826 165.985 334.674L163.855 324.526L162.654 324.874C163.424 328.369 164.475 331.789 165.793 335.098C165.837 335.265 165.943 335.407 166.086 335.493C166.23 335.579 166.4 335.601 166.559 335.555C166.719 335.508 166.854 335.398 166.936 335.247C167.017 335.096 167.038 334.917 166.994 334.75C166.525 331.602 165.72 328.519 164.595 325.56C164.551 325.41 164.459 325.28 164.333 325.195C164.208 325.109 164.058 325.072 163.91 325.092C163.761 325.113 163.625 325.189 163.526 325.307C163.427 325.424 163.371 325.576 163.369 325.733C163.388 329.109 163.776 332.471 164.525 335.755L165.726 335.407L162.579 325.599C162.362 324.921 161.348 325.005 161.356 325.772C161.394 328.699 162.032 331.582 163.227 334.227C163.476 334.81 164.425 334.528 164.385 333.897C164.141 329.923 163.661 325.968 162.95 322.056C162.905 321.89 162.799 321.748 162.655 321.663C162.512 321.578 162.342 321.556 162.183 321.601C162.026 321.65 161.893 321.761 161.812 321.911C161.732 322.061 161.709 322.237 161.749 322.404C162.298 326.096 163.14 329.734 164.266 333.279C164.48 333.954 165.512 333.873 165.489 333.104C165.403 329.284 164.828 325.493 163.782 321.834C163.553 321.03 162.36 321.368 162.581 322.182C163.624 325.982 164.337 329.875 164.709 333.811L165.933 333.638L164.812 325.74L163.611 326.089C164.769 330.128 165.432 334.307 165.581 338.523L166.805 338.351C165.488 334.637 164.569 330.782 164.064 326.855C164.059 326.683 163.992 326.52 163.876 326.398C163.76 326.277 163.605 326.206 163.441 326.201C163.14 326.201 162.773 326.502 162.818 326.855" fill="#653669"/>
<path d="M162.482 323.116C164.008 327.776 165.169 332.558 165.955 337.416C166 337.583 166.105 337.724 166.248 337.81C166.391 337.895 166.561 337.919 166.72 337.874C166.878 337.825 167.011 337.714 167.092 337.563C167.174 337.413 167.196 337.236 167.156 337.068C166.409 332.327 165.661 327.584 164.914 322.841L163.713 323.189C165.17 327.04 166.235 331.043 166.89 335.129L168.028 334.624L167.358 333.578C166.912 332.884 165.833 333.538 166.282 334.24L166.952 335.286C167.03 335.419 167.151 335.518 167.293 335.565C167.435 335.613 167.588 335.606 167.725 335.545C167.862 335.485 167.974 335.375 168.041 335.235C168.108 335.096 168.126 334.936 168.091 334.784C167.436 330.697 166.371 326.695 164.914 322.844C164.87 322.676 164.764 322.534 164.621 322.449C164.477 322.363 164.307 322.341 164.147 322.387C163.988 322.433 163.853 322.544 163.771 322.695C163.69 322.846 163.669 323.024 163.713 323.192L165.955 337.419L167.156 337.071C166.37 332.213 165.209 327.43 163.683 322.77C163.635 322.605 163.529 322.466 163.386 322.38C163.243 322.295 163.075 322.271 162.915 322.313C162.757 322.36 162.622 322.471 162.541 322.622C162.46 322.773 162.439 322.951 162.482 323.118" fill="#653669"/>
<path d="M164.298 328.81C164.52 332.034 165.037 335.228 165.843 338.348C166.055 339.159 167.256 338.814 167.044 338C166.266 334.994 165.765 331.917 165.549 328.81C165.549 328.636 165.484 328.47 165.367 328.347C165.25 328.225 165.091 328.156 164.926 328.156C164.761 328.156 164.603 328.225 164.486 328.347C164.369 328.47 164.303 328.636 164.303 328.81" fill="#653669"/>
<path d="M159.108 254.376C158.952 257.939 158.577 261.487 157.984 264.998L159.208 265.171L159.754 257.789C159.753 257.631 159.698 257.479 159.598 257.36C159.499 257.242 159.362 257.165 159.213 257.145C159.064 257.125 158.914 257.162 158.789 257.247C158.663 257.333 158.571 257.463 158.528 257.613C158.196 258.616 158.059 259.679 158.126 260.739C158.193 261.799 158.463 262.833 158.919 263.781C158.989 263.905 159.096 264.002 159.223 264.056C159.351 264.11 159.491 264.119 159.624 264.082C159.753 264.039 159.866 263.956 159.947 263.843C160.029 263.73 160.075 263.593 160.08 263.451C160.401 260.801 160.354 258.116 159.94 255.481L158.739 255.829C159.389 258.147 159.513 260.593 159.101 262.97C159.068 263.133 159.097 263.304 159.179 263.446C159.262 263.588 159.394 263.692 159.547 263.737C159.7 263.781 159.864 263.762 160.005 263.685C160.145 263.607 160.252 263.476 160.304 263.318C160.75 262.143 160.967 260.887 160.943 259.623C160.919 258.358 160.654 257.112 160.165 255.957C159.94 255.415 159.168 255.617 159.026 256.111C158.513 258.001 158.617 259.963 158.792 261.892C158.966 263.82 159.205 265.725 158.857 267.609L160.08 267.785C159.914 265.234 159.865 262.68 159.933 260.123L158.71 260.298L159.327 264.65C159.373 264.816 159.479 264.958 159.622 265.043C159.766 265.129 159.935 265.152 160.095 265.108C160.252 265.057 160.384 264.946 160.465 264.796C160.547 264.646 160.57 264.469 160.531 264.302L159.911 259.95C159.871 259.798 159.78 259.666 159.654 259.579C159.528 259.493 159.376 259.458 159.228 259.482C159.08 259.503 158.943 259.579 158.844 259.697C158.745 259.815 158.689 259.966 158.687 260.123C158.622 262.677 158.671 265.231 158.834 267.785C158.837 267.942 158.893 268.092 158.992 268.21C159.091 268.327 159.227 268.404 159.375 268.426C159.523 268.449 159.675 268.414 159.801 268.327C159.926 268.241 160.018 268.11 160.058 267.957C160.416 266.021 160.239 264.072 160.058 262.125C159.883 260.238 159.724 258.309 160.224 256.459L159.086 256.616C159.488 257.622 159.696 258.702 159.696 259.793C159.696 260.884 159.488 261.964 159.086 262.97L160.289 263.318C160.753 260.707 160.629 258.019 159.925 255.468C159.882 255.3 159.776 255.158 159.632 255.073C159.489 254.987 159.319 254.965 159.159 255.011C159 255.057 158.865 255.168 158.783 255.319C158.702 255.47 158.681 255.648 158.724 255.816C159.106 258.338 159.138 260.906 158.819 263.438L159.98 263.109C159.607 262.312 159.392 261.444 159.346 260.557C159.301 259.67 159.427 258.783 159.716 257.948L158.493 257.776L157.947 265.157C157.895 265.885 159.048 266.06 159.17 265.33C159.785 261.705 160.175 258.042 160.339 254.363C160.376 253.521 159.131 253.523 159.093 254.363" fill="#653669"/>
<path d="M96.199 423.455V423.84H97.4449C97.3303 422.214 97.1467 420.599 96.8942 418.994L95.6907 419.339C95.9203 420.721 95.9789 422.128 95.8651 423.526L97.0886 423.35C96.4656 421.459 97.2057 419.402 96.5902 417.489C96.3784 416.824 95.3194 416.89 95.3668 417.662C95.4241 418.578 95.4789 419.493 95.5362 420.409C95.5885 421.244 96.7671 421.26 96.7821 420.409C96.8087 418.853 96.8352 417.295 96.8618 415.736C96.8768 414.893 95.6309 414.893 95.6159 415.736C95.5894 417.292 95.5628 418.85 95.5362 420.409H96.7821C96.7248 419.493 96.6699 418.578 96.6126 417.662L95.3892 417.837C95.9922 419.734 95.2522 421.788 95.8876 423.699C95.9322 423.846 96.0251 423.973 96.1498 424.056C96.2745 424.139 96.4232 424.173 96.5696 424.153C96.716 424.132 96.8507 424.058 96.9502 423.943C97.0497 423.829 97.1075 423.681 97.1135 423.526C97.2259 422.011 97.1531 420.487 96.8967 418.991C96.8531 418.823 96.7479 418.681 96.6042 418.595C96.4605 418.509 96.2901 418.486 96.1305 418.532C95.9709 418.578 95.8352 418.688 95.7532 418.839C95.6711 418.99 95.6496 419.169 95.6932 419.336C95.9274 420.828 96.0935 422.328 96.1915 423.837C96.2488 424.667 97.4374 424.69 97.4374 423.837V423.453C97.4374 422.61 96.1915 422.61 96.1915 423.453" fill="#1D1D1B"/>
<path d="M97.6816 406.687V407.671C97.6816 407.844 97.7473 408.011 97.8641 408.133C97.9809 408.256 98.1394 408.325 98.3046 408.325C98.4698 408.325 98.6282 408.256 98.7451 408.133C98.8619 408.011 98.9275 407.844 98.9275 407.671C99.1617 405.054 99.3278 402.426 99.4259 399.787C99.4533 399.062 98.327 398.876 98.2024 399.611C97.7624 402.19 97.7229 404.827 98.0853 407.42C98.1246 407.572 98.2158 407.704 98.3417 407.79C98.4676 407.877 98.6193 407.912 98.768 407.888C98.9165 407.867 99.0529 407.791 99.1522 407.673C99.2515 407.556 99.307 407.404 99.3087 407.247C99.2912 405.798 99.4232 404.351 99.7024 402.932L98.5014 402.584C98.2269 404.328 98.2726 406.112 98.636 407.838C98.7855 408.545 99.9317 408.406 99.8594 407.666C99.4956 403.984 99.1368 400.3 99.1268 396.594C99.1268 395.754 97.881 395.752 97.881 396.594C97.881 400.3 98.2498 403.984 98.6135 407.666L99.837 407.49C99.5197 405.993 99.4741 404.447 99.7024 402.932C99.7416 402.765 99.7185 402.588 99.6379 402.439C99.5573 402.289 99.4253 402.177 99.2689 402.126C99.1093 402.082 98.9396 402.105 98.7961 402.19C98.6526 402.276 98.5468 402.417 98.5014 402.584C98.1949 404.117 98.0479 405.681 98.0629 407.247L99.2863 407.072C98.9625 404.71 99.0021 402.308 99.4034 399.959L98.18 399.787C98.077 402.419 97.9109 405.047 97.6816 407.671H98.9275V406.687C98.9275 405.844 97.6816 405.844 97.6816 406.687Z" fill="#1D1D1B"/>
<path d="M227.434 424.366C227.683 424.994 227.932 425.624 228.181 426.255C228.225 426.405 228.317 426.534 228.442 426.619C228.567 426.705 228.716 426.742 228.864 426.723C229.013 426.703 229.15 426.626 229.249 426.508C229.348 426.389 229.404 426.237 229.405 426.08C229.405 425.147 229.295 424.218 229.076 423.314C229.036 423.161 228.945 423.029 228.819 422.942C228.693 422.855 228.542 422.818 228.392 422.839C228.243 422.861 228.106 422.938 228.007 423.057C227.908 423.176 227.853 423.328 227.852 423.487C227.852 423.594 227.852 423.698 227.852 423.806C227.852 423.853 227.852 423.903 227.84 423.95C227.825 424.136 227.867 423.824 227.84 424.005C227.801 424.214 227.743 424.419 227.668 424.617H228.869L228.824 424.376C228.824 424.295 228.824 424.298 228.824 424.376C228.824 424.337 228.824 424.295 228.824 424.256C228.809 424.113 228.802 423.97 228.802 423.827C228.802 423.683 228.802 423.542 228.819 423.398C228.819 423.358 228.819 423.316 228.819 423.277C228.819 423.345 228.819 423.348 228.819 423.277C228.819 423.209 228.844 423.115 228.862 423.034C228.902 422.867 228.879 422.69 228.798 422.54C228.716 422.39 228.583 422.279 228.426 422.231C228.267 422.186 228.098 422.209 227.954 422.294C227.811 422.379 227.706 422.52 227.661 422.686C227.506 423.442 227.506 424.224 227.661 424.981C227.698 425.118 227.776 425.24 227.885 425.326C227.993 425.413 228.125 425.461 228.261 425.462C228.396 425.456 228.526 425.407 228.633 425.321C228.741 425.234 228.82 425.116 228.862 424.981C229.04 424.511 229.12 424.007 229.096 423.502L227.872 423.678C227.922 423.879 227.965 424.081 228.002 424.287C228.022 424.388 228.039 424.49 228.054 424.593C228.054 424.656 228.072 424.716 228.082 424.779C228.067 424.682 228.082 424.779 228.082 424.821C228.129 425.244 228.152 425.67 228.151 426.095L229.375 425.923C229.126 425.292 228.877 424.661 228.627 424.033C228.58 423.868 228.474 423.729 228.331 423.643C228.188 423.558 228.019 423.534 227.86 423.576C227.571 423.675 227.292 424.041 227.424 424.381" fill="#1D1D1B"/>
<path d="M203.172 350.218C203.409 350.218 203.132 349.752 203.087 349.694C202.96 349.506 202.716 349.194 202.467 349.194C202.218 349.194 202.509 349.66 202.552 349.718C202.679 349.906 202.925 350.218 203.172 350.218Z" fill="#1D1D1B"/>
<path d="M198.59 348.878C201.537 350.202 204.261 352.018 206.655 354.255C206.705 354.305 206.764 354.343 206.829 354.367C206.893 354.391 206.962 354.4 207.03 354.394C207.099 354.387 207.165 354.366 207.224 354.33C207.284 354.294 207.335 354.246 207.376 354.187C207.533 353.878 207.313 353.554 207.104 353.358C204.628 351.051 201.814 349.179 198.769 347.815C198.712 347.781 198.648 347.761 198.582 347.757C198.516 347.753 198.45 347.765 198.389 347.792C198.328 347.819 198.274 347.861 198.231 347.913C198.188 347.966 198.157 348.028 198.141 348.095C198.128 348.259 198.165 348.423 198.245 348.564C198.326 348.704 198.446 348.815 198.59 348.88" fill="#1D1D1B"/>
<path d="M198.153 379.975C198.24 371.534 198.379 363.093 198.572 354.653C198.627 352.261 198.686 349.869 198.749 347.475C198.771 346.633 197.525 346.633 197.503 347.475C197.282 355.915 197.116 364.355 197.005 372.795C196.971 375.19 196.942 377.584 196.917 379.975C196.917 380.818 198.163 380.818 198.163 379.975" fill="#1D1D1B"/>
<path d="M200.147 349.022C200.949 349.022 200.949 347.713 200.147 347.713C199.344 347.713 199.344 349.022 200.147 349.022Z" fill="#1D1D1B"/>
<path d="M198.111 347.177C201.907 349.324 205.34 352.113 208.273 355.433C208.213 355.365 208.273 354.881 208.273 354.779V354.315C208.273 354.279 208.288 354.148 208.273 354.124C205.34 350.805 201.907 348.015 198.111 345.869C198.13 346.086 198.13 346.305 198.111 346.523C198.111 346.599 198.056 347.143 198.111 347.177Z" fill="#1D1D1B"/>
<path d="M197.418 346.211C198.594 347.281 199.745 348.381 200.869 349.514V348.205C200.531 348.167 200.221 347.99 200.007 347.713C200.013 347.777 200.013 347.841 200.007 347.904V348.831C200.007 348.87 199.99 348.993 200.007 349.022C200.221 349.299 200.531 349.476 200.869 349.514C200.869 349.514 200.869 348.909 200.869 348.859C200.869 348.705 200.869 348.551 200.869 348.396C200.869 348.365 200.884 348.226 200.869 348.205C199.746 347.075 198.596 345.974 197.418 344.903C197.422 344.967 197.422 345.03 197.418 345.094V346.018C197.418 346.052 197.403 346.193 197.418 346.211Z" fill="#1D1D1B"/>
<path d="M197.179 345.314C197.901 349.163 198.252 353.079 198.228 357.003C198.228 357.301 198.228 357.599 198.228 357.898C198.228 357.958 198.228 358.366 198.228 358.133C198.33 353.398 197.977 348.664 197.174 344.003C197.249 344.421 197.1 344.887 197.174 345.311" fill="#1D1D1B"/>
<path d="M197.443 349.77C197.503 350.095 197.563 350.416 197.62 350.741C197.603 350.523 197.603 350.304 197.62 350.087C197.62 349.87 197.62 349.65 197.62 349.433C197.507 347.842 197.393 346.25 197.279 344.657C197.309 345.081 197.279 345.518 197.279 345.942L197.413 351.837C197.413 351.408 197.413 350.979 197.413 350.553L196.771 342.862V344.17C197.251 349.404 197.518 354.65 197.558 359.905C197.558 360.507 197.558 361.108 197.558 361.708C197.558 362.019 197.558 362.331 197.558 362.642C197.558 362.794 197.558 362.943 197.558 363.095C197.537 363.289 197.537 363.484 197.558 363.678C197.52 363.398 197.508 363.115 197.523 362.833L197.486 361.857L197.418 359.907C197.335 357.291 197.276 354.668 197.241 352.039C197.205 349.153 197.2 346.265 197.226 343.375C197.226 343.44 197.226 343.503 197.226 343.568C197.454 345.876 197.682 348.185 197.912 350.495C197.869 350.066 197.954 349.618 197.912 349.187C197.682 346.879 197.454 344.57 197.226 342.26C197.226 342.318 197.226 342.394 197.226 342.451C197.168 348.323 197.223 354.194 197.391 360.064C197.437 361.711 197.495 363.358 197.563 365.005C197.563 365.089 197.563 364.898 197.563 364.939C197.673 359.183 197.563 353.426 197.179 347.669C197.071 346.064 196.944 344.462 196.798 342.862C196.838 343.291 196.761 343.736 196.798 344.17L197.441 351.861C197.406 351.44 197.453 351 197.441 350.576C197.394 348.61 197.349 346.645 197.304 344.681C197.304 345.11 197.304 345.539 197.304 345.965C197.418 347.556 197.532 349.148 197.645 350.741V349.433C197.588 349.108 197.528 348.786 197.468 348.462C197.545 348.88 197.393 349.349 197.468 349.77" fill="#1D1D1B"/>
<path d="M177.432 132.098L176.974 139.726C176.956 140.03 176.936 140.336 176.919 140.639C176.919 140.791 176.902 140.943 176.892 141.095C176.869 141.482 176.862 143.104 176.892 142.424C176.907 141.796 176.917 141.168 176.929 140.54C176.954 139.263 176.98 137.986 177.006 136.709C177.036 135.282 177.065 133.854 177.093 132.425V132.514C177.166 132.925 177.223 133.336 177.26 133.75C177.28 133.969 177.295 134.192 177.305 134.412C177.305 134.532 177.305 134.673 177.318 134.781C177.318 134.631 177.318 134.482 177.318 134.333C177.318 134.417 177.318 134.501 177.318 134.595C177.298 135.003 177.263 135.409 177.211 135.814C177.183 136.021 177.151 136.225 177.116 136.429C177.098 136.531 177.081 136.636 177.061 136.735C177.019 136.947 177.026 136.942 176.994 136.735C176.862 135.89 176.779 135.037 176.745 134.181C176.745 134.066 176.745 133.951 176.745 133.836C176.727 133.42 176.73 134.563 176.745 133.927C176.745 133.718 176.76 133.509 176.772 133.297C176.784 133.085 176.797 132.894 176.812 132.69C176.812 132.664 176.839 132.313 176.847 132.313C176.886 132.429 176.918 132.548 176.944 132.669C177.146 133.443 177.303 134.23 177.415 135.024C177.467 135.409 177.512 135.809 177.542 136.186C177.562 136.424 177.577 136.662 177.589 136.9V137.146C177.589 137.245 177.589 137.348 177.589 137.45C177.589 137.337 177.589 137.225 177.589 137.115C177.601 137.32 177.592 137.526 177.564 137.73C177.549 137.968 177.532 138.206 177.51 138.441C177.51 138.524 177.502 138.607 177.485 138.687C177.483 138.565 177.475 138.442 177.46 138.321C177.442 138.059 177.427 137.798 177.412 137.536C177.368 136.667 177.335 135.796 177.325 134.919C177.299 134.456 177.304 133.992 177.343 133.53C177.343 133.443 177.343 133.404 177.358 133.595C177.358 133.726 177.358 133.857 177.377 133.988C177.377 134.228 177.397 134.467 177.41 134.707L177.544 137.646C177.544 137.219 177.544 136.79 177.544 136.361C177.27 134.793 177.08 133.21 176.974 131.619C176.974 132.049 176.974 132.478 176.974 132.904C177.149 133.777 177.267 134.66 177.325 135.55C177.34 135.759 177.35 135.969 177.358 136.175C177.358 136.259 177.358 136.34 177.358 136.424C177.358 136.317 177.358 136.212 177.358 136.105C177.37 136.209 177.37 136.314 177.358 136.419C177.338 136.89 177.3 137.361 177.248 137.832C177.248 137.889 177.248 138.177 177.211 138.015C177.194 137.909 177.185 137.803 177.183 137.696L177.131 137.054C177.093 136.628 177.056 136.201 177.021 135.775C176.944 134.88 176.869 133.985 176.792 133.087V134.396C176.985 135.304 177.102 136.227 177.143 137.157C177.143 137.219 177.143 137.282 177.143 137.345V137.083C177.148 137.208 177.143 137.333 177.128 137.457C177.113 137.698 177.096 137.942 177.071 138.182C177.067 138.307 177.054 138.431 177.031 138.554C177.011 138.451 176.985 138.35 176.954 138.25C176.899 138.028 176.849 137.805 176.799 137.58C176.398 135.778 176.186 133.936 176.167 132.085V133.069C176.356 133.652 176.502 134.25 176.603 134.856C176.655 135.178 176.695 135.503 176.72 135.83C176.72 135.945 176.737 136.057 176.742 136.173C176.742 136.434 176.742 136.337 176.742 135.893C176.727 135.827 176.675 135.712 176.657 135.631C176.529 135.018 176.437 134.398 176.381 133.773C176.363 133.572 176.348 133.373 176.338 133.171C176.338 133.087 176.338 133.004 176.338 132.91C176.338 132.648 176.338 132.742 176.338 133.229C176.353 132.862 176.368 132.496 176.401 132.13C176.401 132.067 176.401 132.004 176.418 131.944C176.418 131.784 176.436 131.776 176.478 131.926C176.552 132.062 176.609 132.208 176.647 132.36C176.746 132.634 176.829 132.913 176.897 133.197C176.962 133.48 177.013 133.767 177.049 134.056C177.071 134.241 177.078 134.427 177.096 134.613C177.108 134.962 177.108 134.774 177.096 134.048C177.096 134.121 177.096 134.197 177.096 134.27C177.096 134.344 177.083 134.417 177.076 134.49C177.076 134.647 177.059 134.644 177.034 134.49C176.983 134.33 176.947 134.165 176.926 133.998C176.862 133.693 176.807 133.384 176.762 133.072C176.717 132.763 176.68 132.452 176.652 132.138C176.637 131.939 176.622 131.737 176.613 131.536C176.613 131.452 176.613 131.368 176.613 131.274C176.613 130.921 176.613 131.028 176.613 131.591C176.613 131.622 176.613 131.651 176.613 131.682C176.771 132.157 176.898 132.643 176.991 133.137C177.033 133.373 177.068 133.611 177.096 133.852C177.113 133.988 177.126 134.113 177.136 134.26C177.146 134.406 177.153 134.945 177.158 134.338C177.158 134.03 177.158 133.98 177.158 134.189C177.191 134.289 177.181 134.328 177.128 134.302C177.076 134.275 177.016 134.011 176.999 133.954C176.933 133.725 176.882 133.493 176.844 133.258C176.824 133.14 176.809 133.022 176.797 132.904V132.787C176.772 132.349 176.767 132.5 176.782 133.239C176.782 133.195 176.864 132.431 176.874 132.436C176.949 132.459 177.011 133.069 177.029 133.169C177.073 133.415 177.111 133.661 177.141 133.909C177.171 134.158 177.201 134.472 177.216 134.757C177.248 135.375 177.173 134.519 177.216 134.495C177.216 134.495 177.191 134.867 177.201 134.869C177.108 134.841 177.076 134.33 177.061 134.239C177.021 133.993 176.984 133.747 176.954 133.501C176.879 132.933 176.832 132.363 176.802 131.792C176.802 132.219 176.802 132.648 176.802 133.077C177.023 133.768 177.144 134.489 177.161 135.218C177.161 134.812 177.161 134.406 177.161 134.001C176.972 133.693 176.864 133.338 176.849 132.972C176.849 133.378 176.849 133.786 176.849 134.192C176.903 134.423 176.943 134.657 176.971 134.893C176.961 135.044 176.972 135.196 177.004 135.343V134.558C177.004 134.668 177.004 134.778 176.979 134.89C176.979 135.218 176.979 135.545 176.979 135.874L177.001 131.326V131.651C177.352 136.46 177.833 141.258 178.446 146.043C178.621 147.412 178.806 148.778 179.002 150.138C178.942 149.714 179.064 149.259 179.002 148.83C178.318 144.06 177.762 139.271 177.335 134.461C177.212 133.09 177.101 131.717 177.001 130.342C177.001 130.447 177.001 130.56 177.001 130.667L176.979 135.212C176.979 135.534 177.014 135.877 176.979 136.199C177.105 135.094 177.062 133.976 176.849 132.886C176.864 133.045 176.864 133.206 176.849 133.365C176.849 133.613 176.849 133.859 176.849 134.105C176.846 134.531 176.955 134.948 177.166 135.312C177.146 135.152 177.146 134.99 177.166 134.83C177.166 134.584 177.166 134.338 177.166 134.092C177.155 133.304 177.032 132.521 176.799 131.771C176.823 131.96 176.823 132.151 176.799 132.339C176.799 132.577 176.799 132.818 176.799 133.056C176.853 134.14 176.985 135.219 177.193 136.283C177.194 136.275 177.194 136.267 177.193 136.259C177.243 135.403 177.25 134.544 177.213 133.687C177.213 133.305 177.168 132.923 177.121 132.543C177.088 132.106 177.011 131.673 176.892 131.253C176.832 131.086 176.854 131.159 176.832 131.308C176.817 131.405 176.804 131.504 176.794 131.604C176.777 131.769 176.767 131.933 176.762 132.101C176.747 132.543 176.762 132.988 176.762 133.433C176.761 134.213 176.892 134.987 177.148 135.72C177.148 135.72 177.148 135.704 177.148 135.696C177.253 133.901 177.183 132.088 176.615 130.379C176.612 130.409 176.612 130.439 176.615 130.468C176.57 131.668 176.612 132.87 176.74 134.064C176.793 134.649 176.898 135.228 177.054 135.793C177.123 136.008 177.073 135.89 177.096 135.793C177.109 135.716 177.115 135.638 177.116 135.56C177.116 135.477 177.116 135.39 177.131 135.299C177.143 135.003 177.131 134.705 177.143 134.406C177.184 133.284 177.034 132.163 176.7 131.096C176.655 130.968 176.608 130.834 176.555 130.714C176.541 130.657 176.518 130.602 176.488 130.552C176.403 130.471 176.456 130.596 176.446 130.685C176.418 130.965 176.396 131.243 176.383 131.523C176.353 132.132 176.356 132.747 176.361 133.354C176.359 134.676 176.502 135.993 176.787 137.28V137.256C176.862 135.382 176.787 133.53 176.206 131.74C176.221 131.847 176.221 131.957 176.206 132.064V132.724C176.184 135.066 176.442 137.402 176.974 139.676C176.989 139.739 177.004 139.799 177.021 139.86C177.021 139.776 177.041 139.695 177.049 139.611C177.066 139.446 177.081 139.279 177.093 139.114C177.113 138.852 177.128 138.591 177.136 138.329C177.156 137.717 177.153 137.102 177.136 136.497C177.123 135.353 177 134.213 176.767 133.095C176.788 133.313 176.788 133.532 176.767 133.75C176.767 133.967 176.755 134.189 176.767 134.404L177.051 137.732C177.051 137.871 177.183 139.396 177.191 139.396C177.25 139.396 177.315 138.088 177.323 137.936C177.473 135.816 177.356 133.684 176.974 131.596C176.991 131.785 176.991 131.975 176.974 132.164C176.974 132.402 176.974 132.643 176.974 132.881C177.073 134.484 177.258 136.08 177.527 137.662C177.512 137.473 177.512 137.284 177.527 137.096C177.527 136.856 177.527 136.615 177.527 136.377L177.328 132.064C177.328 132.033 177.328 132.033 177.328 132.064C177.265 134.218 177.273 136.377 177.38 138.525C177.38 138.787 177.407 139.048 177.422 139.31C177.422 139.464 177.387 139.849 177.467 139.983C177.463 139.858 177.475 139.734 177.505 139.614C177.505 139.493 177.524 139.37 177.532 139.247C177.549 138.986 177.564 138.74 177.572 138.486C177.604 137.494 177.607 136.492 177.554 135.503C177.504 134.51 177.383 133.522 177.191 132.548C177.143 132.308 177.091 132.067 177.034 131.829C176.995 131.584 176.933 131.344 176.849 131.112L176.817 130.994L176.794 131.256C176.794 131.381 176.772 131.517 176.765 131.635C176.745 131.897 176.73 132.159 176.72 132.42C176.682 133.428 176.682 134.443 176.72 135.45C176.74 135.919 176.772 136.39 176.819 136.858C176.844 137.109 176.874 137.361 176.909 137.612C176.924 137.737 176.941 137.86 176.961 137.986C176.974 138.07 176.986 138.154 177.001 138.248C177.019 138.164 177.034 138.083 177.049 138.002C177.242 136.903 177.333 135.788 177.32 134.671C177.337 133.521 177.254 132.371 177.071 131.237C177.071 131.269 177.071 131.298 177.071 131.326C177.001 134.747 176.932 138.167 176.864 141.584C176.864 141.846 176.864 142.128 176.864 142.4C176.864 142.505 176.864 142.61 176.864 142.714C176.864 142.714 176.864 142.843 176.864 142.78C177.052 139.65 177.24 136.521 177.427 133.391C177.442 133.129 177.427 132.852 177.427 132.585C177.427 132.457 177.427 132.323 177.427 132.195C177.427 132.182 177.427 132.067 177.427 132.13" fill="#1D1D1B"/>
<path d="M177.532 131.894C177.356 136.395 177.486 140.902 177.918 145.384C177.876 144.954 177.963 144.51 177.918 144.075C177.544 140.453 177.416 136.807 177.534 133.166C177.534 132.904 177.534 132.643 177.534 132.363C177.534 132.232 177.534 132.101 177.534 131.97C177.534 131.97 177.534 131.842 177.534 131.905" fill="#1D1D1B"/>
<path d="M177.026 130.337C177.033 135.111 177.298 139.88 177.821 144.622C177.976 145.993 178.152 147.361 178.349 148.725C178.287 148.301 178.412 147.846 178.349 147.417C177.699 142.926 177.288 138.401 177.118 133.862C177.071 132.572 177.041 131.279 177.036 129.989C177.036 129.858 177.036 129.728 177.036 129.597C177.036 129.626 177.036 129.453 177.036 129.531C177.021 129.8 177.021 130.069 177.036 130.337" fill="#1D1D1B"/>
<path d="M176.812 131.761C176.759 135.178 176.797 138.598 176.959 142.013C176.959 142.097 176.959 141.909 176.959 141.948C176.959 141.817 176.959 141.686 176.959 141.555C176.959 141.294 176.959 141.019 176.959 140.752C176.834 138.135 176.774 135.518 176.814 132.902C176.814 132.603 176.814 132.305 176.814 132.007C176.814 131.947 176.814 131.538 176.814 131.771" fill="#1D1D1B"/>
<path d="M176.725 132.287C176.585 135.69 176.847 139.099 177.504 142.435C177.42 142.021 177.592 141.545 177.504 141.126C177.244 139.88 177.045 138.621 176.909 137.353C176.839 136.685 176.788 136.015 176.754 135.343C176.74 135.047 176.727 134.749 176.72 134.453C176.72 134.414 176.687 133.736 176.72 134.121C176.707 133.933 176.72 133.736 176.72 133.548C176.72 133.286 176.72 133.025 176.72 132.745C176.72 132.614 176.72 132.483 176.72 132.352C176.72 132.352 176.72 132.224 176.72 132.287" fill="#1D1D1B"/>
<path d="M177.721 130.026C177.328 134.96 177.203 139.914 177.345 144.863C177.345 144.02 177.345 143.18 177.345 142.338C177.081 137.732 176.815 133.126 176.548 128.519C176.548 129.377 176.548 130.233 176.548 131.091C177.116 136.61 177.687 142.131 178.332 147.642C178.307 147.206 178.307 146.769 178.332 146.333C178.357 145.898 178.357 145.461 178.332 145.025C177.687 139.514 177.116 133.993 176.548 128.474C176.566 128.852 176.566 129.23 176.548 129.607C176.548 130.083 176.53 130.568 176.548 131.044C176.812 135.649 177.078 140.256 177.345 144.863C177.345 145.03 177.345 144.651 177.345 144.729C177.345 144.468 177.345 144.206 177.345 143.944C177.345 143.421 177.345 142.871 177.345 142.335C177.345 141.911 177.328 141.485 177.325 141.058C177.325 141.058 177.325 140.796 177.325 140.87C177.325 141.071 177.325 140.587 177.325 140.883C177.325 140.914 177.325 141.129 177.325 140.964V140.775C177.325 139.896 177.355 139.017 177.388 138.14C177.452 136.303 177.563 134.472 177.719 132.645C177.756 132.213 177.719 131.769 177.719 131.337C177.719 130.905 177.672 130.455 177.719 130.028" fill="#1D1D1B"/>
<path d="M177.721 132.802C177.922 135.818 178.123 138.836 178.324 141.856C178.324 142.024 178.324 141.647 178.324 141.725C178.324 141.464 178.324 141.202 178.324 140.94C178.324 140.417 178.349 139.865 178.324 139.331C178.125 136.313 177.924 133.299 177.721 130.288C177.721 130.12 177.721 130.497 177.721 130.421C177.721 130.683 177.721 130.944 177.721 131.206C177.721 131.729 177.694 132.284 177.721 132.818" fill="#1D1D1B"/>
<path d="M177.058 138.567L177.851 145.92V143.303C176.946 140.331 176.802 137.204 176.672 134.111C176.672 133.941 176.672 134.325 176.672 134.241C176.672 134.503 176.672 134.765 176.672 135.026C176.672 135.55 176.672 136.102 176.672 136.636C176.735 138.363 176.798 140.09 176.862 141.817C176.862 141.987 176.862 141.602 176.862 141.686C176.862 141.424 176.862 141.163 176.862 140.901C176.862 140.365 176.862 139.828 176.862 139.292C176.782 136.97 176.703 134.649 176.625 132.329C176.625 133.184 176.625 134.043 176.625 134.898C176.989 135.88 177.272 136.893 177.472 137.926C177.572 138.449 177.651 138.959 177.721 139.48C177.749 139.742 177.774 140.004 177.791 140.278C177.791 140.399 177.791 140.519 177.811 140.642V140.883C177.827 141.504 177.827 141.029 177.811 139.459C177.811 140.056 177.811 140.653 177.811 141.249C177.811 141.451 177.811 141.652 177.811 141.851C177.811 141.998 177.811 141.681 177.811 141.72C177.843 139.925 177.878 138.106 177.631 136.324C177.438 134.94 177.095 133.584 176.61 132.282C176.623 132.409 176.623 132.538 176.61 132.666C176.61 132.928 176.61 133.166 176.61 133.417C176.61 133.893 176.61 134.375 176.61 134.851C176.69 137.173 176.769 139.494 176.847 141.814V139.292C176.782 137.565 176.718 135.838 176.655 134.111V136.633C176.784 139.758 176.926 142.913 177.838 145.92C177.825 145.792 177.825 145.663 177.838 145.535C177.838 145.227 177.838 144.92 177.838 144.612C177.858 144.176 177.854 143.739 177.826 143.303L177.033 135.95C177.052 136.386 177.048 136.823 177.021 137.259C177.003 137.695 177.007 138.131 177.033 138.567" fill="#1D1D1B"/>
<path d="M177.133 137.329L177.313 140.362C177.327 140.582 177.313 140.812 177.355 141.029C177.37 141.118 177.462 141.343 177.562 141.212C177.568 141.167 177.568 141.122 177.562 141.076C177.562 140.898 177.562 140.718 177.562 140.54C177.562 140.017 177.562 139.493 177.562 138.954C177.582 138.814 177.576 138.671 177.544 138.533C177.527 138.499 177.507 138.457 177.477 138.509C177.461 138.637 177.461 138.766 177.477 138.894C177.477 139.2 177.477 139.509 177.477 139.818C177.477 140.127 177.477 140.435 177.477 140.744C177.495 140.871 177.495 141 177.477 141.126C177.514 141.058 177.547 141.147 177.554 141.189C177.554 140.331 177.554 139.475 177.554 138.619V138.643C177.554 138.627 177.554 138.611 177.554 138.596C177.527 138.661 177.457 138.63 177.417 138.596C177.369 138.533 177.343 138.454 177.345 138.373C177.345 138.389 177.345 138.405 177.345 138.42L177.128 134.812C177.128 134.644 177.128 135.024 177.128 134.943C177.128 135.204 177.128 135.466 177.128 135.728C177.128 136.251 177.106 136.803 177.128 137.337" fill="#1D1D1B"/>
<path d="M177.116 137.125C176.999 136.898 176.929 136.647 176.909 136.39C176.909 136.406 176.909 136.421 176.909 136.437C176.909 136.379 176.909 136.385 176.909 136.437C176.909 137.123 176.909 137.808 176.909 138.491C176.909 138.753 176.909 138.834 176.909 138.708C176.909 138.724 176.909 138.74 176.909 138.755C176.909 138.7 176.909 138.648 176.926 138.593C176.926 137.936 176.926 137.285 176.926 136.625V138.119C176.926 138.559 176.926 138.999 176.926 139.428C176.926 139.582 176.926 139.739 176.926 139.896C176.926 139.956 176.926 140.017 176.926 140.074C177.121 139.311 177.252 138.532 177.317 137.745C177.352 137.316 177.317 136.871 177.317 136.437C177.317 136.131 177.317 135.822 177.317 135.513C177.317 135.388 177.3 135.252 177.317 135.129C177.252 135.915 177.121 136.695 176.926 137.457C176.926 138.114 176.926 138.766 176.926 139.428V137.931C176.926 137.491 176.926 137.055 176.926 136.623C176.926 136.466 176.926 136.309 176.926 136.152C176.926 136.094 176.926 136.034 176.926 135.974C176.901 136.194 176.891 136.416 176.896 136.638C176.896 137.162 176.896 137.69 176.896 138.224C176.896 138.457 176.896 138.695 176.896 138.928C176.911 139.208 176.984 139.481 177.108 139.729C177.108 139.692 177.108 139.653 177.108 139.616C177.108 139.527 177.108 139.436 177.108 139.355C177.108 139.046 177.108 138.737 177.108 138.428C177.108 138.119 177.108 137.811 177.108 137.502C177.108 137.434 177.108 137.366 177.108 137.298C177.112 137.239 177.112 137.179 177.108 137.12" fill="#1D1D1B"/>
<path d="M177.046 136.144C177.377 136.144 177.816 136.042 177.995 135.715C178.175 135.388 177.853 135.204 177.589 135.204C177.258 135.204 176.819 135.309 176.64 135.636C176.46 135.963 176.782 136.144 177.046 136.144Z" fill="#1D1D1B"/>
<path d="M176.46 135.215C176.82 135.228 177.176 135.129 177.482 134.93C177.691 134.775 177.691 134.558 177.387 134.558C177.027 134.544 176.671 134.644 176.366 134.846C176.156 134.998 176.159 135.215 176.46 135.215Z" fill="#1D1D1B"/>
<path d="M177.031 139.232C177.34 139.232 177.804 139.122 177.985 138.829C178.167 138.536 177.831 138.418 177.604 138.418C177.295 138.418 176.829 138.53 176.647 138.823C176.466 139.116 176.804 139.232 177.031 139.232Z" fill="#1D1D1B"/>
<defs>
<filter id="filter0_d_0_1" x="0" y="0" width="415" height="641" filterUnits="userSpaceOnUse" color-interpolation-filters="sRGB">
<feFlood flood-opacity="0" result="BackgroundImageFix"/>
<feColorMatrix in="SourceAlpha" type="matrix" values="0 0 0 0 0 0 0 0 0 0 0 0 0 0 0 0 0 0 127 0" result="hardAlpha"/>
<feMorphology radius="11" operator="dilate" in="SourceAlpha" result="effect1_dropShadow_0_1"/>
<feOffset dx="8" dy="15"/>
<feGaussianBlur stdDeviation="3"/>
<feComposite in2="hardAlpha" operator="out"/>
<feColorMatrix type="matrix" values="0 0 0 0 0 0 0 0 0 0 0 0 0 0 0 0 0 0 0.25 0"/>
<feBlend mode="normal" in2="BackgroundImageFix" result="effect1_dropShadow_0_1"/>
<feBlend mode="normal" in="SourceGraphic" in2="effect1_dropShadow_0_1" result="shape"/>
</filter>
</defs>
</svg>
