<svg width="499" height="272" viewBox="0 0 499 272" fill="none" xmlns="http://www.w3.org/2000/svg">
<g filter="url(#filter0_d_0_1)">
<path d="M73.1771 107.13C34.972 107.13 4 138.065 4 176.225C4 214.385 34.972 245.32 73.1771 245.32C111.382 245.32 142.354 214.385 142.354 176.225C142.354 138.065 111.382 107.13 73.1771 107.13ZM73.1771 199.407C67.0217 199.407 61.1183 196.964 56.7657 192.617C52.4131 188.27 49.9679 182.373 49.9679 176.225C49.9679 170.077 52.4131 164.181 56.7657 159.833C61.1183 155.486 67.0217 153.043 73.1771 153.043C79.3326 153.043 85.236 155.486 89.5886 159.833C93.9412 164.181 96.3864 170.077 96.3864 176.225C96.3864 182.373 93.9412 188.27 89.5886 192.617C85.236 196.964 79.3326 199.407 73.1771 199.407Z" fill="white" fill-opacity="0.15" shape-rendering="crispEdges"/>
<path d="M6 176.225C6 139.172 36.0743 109.13 73.1771 109.13C110.28 109.13 140.354 139.172 140.354 176.225C140.354 213.278 110.28 243.32 73.1771 243.32C36.0743 243.32 6 213.278 6 176.225ZM55.3523 194.032C60.0802 198.754 66.492 201.407 73.1771 201.407C79.8623 201.407 86.2741 198.754 91.0019 194.032C95.7299 189.31 98.3864 182.904 98.3864 176.225C98.3864 169.546 95.7299 163.14 91.0019 158.418C86.2741 153.696 79.8623 151.043 73.1771 151.043C66.492 151.043 60.0802 153.696 55.3523 158.418C50.6244 163.14 47.9679 169.546 47.9679 176.225C47.9679 182.904 50.6244 189.31 55.3523 194.032Z" stroke="white" stroke-width="4" shape-rendering="crispEdges"/>
</g>
<g filter="url(#filter1_d_0_1)">
<path d="M227.755 0C189.55 0 158.578 30.935 158.578 69.0946C158.578 107.254 189.55 138.189 227.755 138.189C265.961 138.189 296.933 107.254 296.933 69.0946C296.933 30.935 265.961 0 227.755 0ZM227.755 92.2762C221.6 92.2762 215.697 89.8339 211.344 85.4865C206.991 81.1391 204.546 75.2428 204.546 69.0946C204.546 62.9465 206.991 57.0502 211.344 52.7028C215.697 48.3554 221.6 45.913 227.755 45.913C233.911 45.913 239.814 48.3554 244.167 52.7028C248.519 57.0502 250.965 62.9465 250.965 69.0946C250.965 75.2428 248.519 81.1391 244.167 85.4865C239.814 89.8339 233.911 92.2762 227.755 92.2762Z" fill="white" fill-opacity="0.15" shape-rendering="crispEdges"/>
<path d="M160.578 69.0946C160.578 32.0419 190.653 2 227.755 2C264.858 2 294.933 32.0419 294.933 69.0946C294.933 106.147 264.858 136.189 227.755 136.189C190.653 136.189 160.578 106.147 160.578 69.0946ZM209.931 86.9015C214.658 91.6237 221.07 94.2762 227.755 94.2762C234.441 94.2762 240.852 91.6237 245.58 86.9015C250.308 82.1793 252.965 75.774 252.965 69.0946C252.965 62.4153 250.308 56.01 245.58 51.2877C240.852 46.5655 234.441 43.913 227.755 43.913C221.07 43.913 214.658 46.5655 209.931 51.2877C205.203 56.01 202.546 62.4153 202.546 69.0946C202.546 75.774 205.203 82.1793 209.931 86.9015Z" stroke="white" stroke-width="4" shape-rendering="crispEdges"/>
</g>
<g filter="url(#filter2_d_0_1)">
<path d="M312.255 125.811C274.05 125.811 243.078 156.746 243.078 194.905C243.078 233.065 274.05 264 312.255 264C350.46 264 381.432 233.065 381.432 194.905C381.432 156.746 350.46 125.811 312.255 125.811ZM312.255 218.087C307.665 218.087 303.178 216.727 299.361 214.18C295.544 211.633 292.569 208.012 290.813 203.777C289.056 199.541 288.596 194.88 289.492 190.383C290.387 185.886 292.598 181.756 295.844 178.514C299.09 175.272 303.225 173.064 307.727 172.169C312.229 171.275 316.896 171.734 321.137 173.488C325.378 175.243 329.003 178.214 331.553 182.026C334.103 185.839 335.464 190.32 335.464 194.905C335.464 201.054 333.019 206.95 328.667 211.297C324.314 215.645 318.411 218.087 312.255 218.087Z" fill="white" fill-opacity="0.15" shape-rendering="crispEdges"/>
<path d="M245.078 194.905C245.078 157.853 275.152 127.811 312.255 127.811C349.358 127.811 379.432 157.853 379.432 194.905C379.432 231.958 349.358 262 312.255 262C275.152 262 245.078 231.958 245.078 194.905ZM298.251 215.844C302.396 218.61 307.27 220.087 312.255 220.087C318.94 220.087 325.352 217.434 330.08 212.712C334.808 207.99 337.464 201.585 337.464 194.905C337.464 189.924 335.986 185.055 333.215 180.914C330.445 176.773 326.508 173.546 321.902 171.64C317.295 169.735 312.227 169.236 307.338 170.208C302.448 171.179 297.956 173.577 294.43 177.098C290.905 180.62 288.503 185.107 287.53 189.992C286.557 194.877 287.057 199.941 288.965 204.543C290.873 209.144 294.105 213.077 298.251 215.844Z" stroke="white" stroke-width="4" shape-rendering="crispEdges"/>
</g>
<g filter="url(#filter3_d_0_1)">
<path d="M441.5 132C411.953 132 388 156.177 388 186C388 215.823 411.953 240 441.5 240C471.047 240 495 215.823 495 186C495 156.177 471.047 132 441.5 132ZM441.5 204.114C437.95 204.114 434.48 203.051 431.528 201.061C428.577 199.07 426.276 196.241 424.918 192.93C423.559 189.62 423.204 185.978 423.896 182.463C424.589 178.949 426.298 175.721 428.809 173.188C431.319 170.654 434.517 168.929 437.998 168.23C441.48 167.531 445.089 167.889 448.369 169.261C451.648 170.632 454.451 172.954 456.424 175.933C458.396 178.912 459.448 182.415 459.448 185.998C459.448 190.802 457.557 195.41 454.191 198.808C450.825 202.205 446.26 204.114 441.5 204.114Z" fill="white" fill-opacity="0.15" shape-rendering="crispEdges"/>
<path d="M390.5 186C390.5 157.536 413.356 134.5 441.5 134.5C469.644 134.5 492.5 157.536 492.5 186C492.5 214.464 469.644 237.5 441.5 237.5C413.356 237.5 390.5 214.464 390.5 186ZM430.131 203.133C433.494 205.402 437.45 206.614 441.5 206.614C446.931 206.614 452.134 204.436 455.967 200.567C459.8 196.699 461.948 191.458 461.948 185.998C461.948 181.925 460.752 177.943 458.508 174.553C456.264 171.163 453.072 168.517 449.333 166.954C445.594 165.391 441.478 164.981 437.506 165.779C433.535 166.576 429.891 168.543 427.033 171.428C424.175 174.313 422.231 177.985 421.444 181.98C420.656 185.975 421.06 190.115 422.605 193.88C424.15 197.644 426.767 200.865 430.131 203.133Z" stroke="white" stroke-width="5" shape-rendering="crispEdges"/>
</g>
<path d="M96.729 112.154C93.4171 112.177 90.1067 112.009 86.8143 111.65L87.1343 109.12C87.2064 109.12 94.4509 110.02 104.154 109.345C113.061 108.722 125.905 106.606 136.62 100.077C147.066 93.7076 152.6 84.8649 155.403 78.5676C158.459 71.7054 159.029 66.2813 159.029 66.2273L161.571 66.4794C161.546 66.7045 160.967 72.2928 157.769 79.5106C154.82 86.168 148.981 95.5194 137.94 102.256C126.777 109.061 113.464 111.258 104.264 111.893C101.52 112.082 98.9755 112.154 96.729 112.154Z" fill="white"/>
<path d="M430.473 138C423.184 137.97 415.901 137.504 408.66 136.604C394.293 134.853 372.61 130.573 350.902 120.137C341.029 115.376 331.405 108.13 322.312 98.5892C315.083 91.0028 308.17 81.9509 301.748 71.6857C290.843 54.2393 285.236 39.519 285 38.9045L289.423 37C289.491 37.1801 295.127 51.9499 305.769 68.9528C315.519 84.5465 331.609 105.275 352.852 115.489C373.962 125.639 395.085 129.813 409.092 131.528C424.304 133.39 434.642 132.834 434.745 132.827L435 137.905C434.831 137.914 433.239 138 430.473 138Z" fill="white"/>
<path d="M260.598 241.185C260.512 241.082 251.875 230.569 238.729 219.955C226.737 210.277 208.42 198.509 189.255 197.449C171.172 196.44 152.382 205.483 139.806 213.248C126.06 221.735 116.597 230.544 116.491 230.632L113.011 226.923C113.41 226.549 122.951 217.675 137.122 208.918C145.477 203.762 153.702 199.733 161.568 196.947C171.508 193.427 180.915 191.883 189.53 192.364C198.651 192.871 208.291 195.61 218.183 200.507C226.016 204.383 234.029 209.618 242.003 216.066C255.537 227.006 264.174 237.528 264.536 237.971L260.598 241.185Z" fill="white"/>
<path d="M292.303 132C289.847 121.811 285.691 105.029 285 103.382C285.039 103.46 285.082 103.536 285.13 103.609L289.195 101C289.513 101.501 289.877 102.071 293.53 116.724C295.291 123.792 296.983 130.794 297 130.86L292.303 132Z" fill="white"/>
<path d="M319.089 94.3162L315.807 128.361L320.871 128.848L324.153 94.8033L319.089 94.3162Z" fill="white"/>
<path d="M347.097 113.142L336.258 132.077L340.675 134.599L351.514 115.665L347.097 113.142Z" fill="white"/>
<path d="M381.721 125.679L358.819 145.846L362.184 149.658L385.086 129.491L381.721 125.679Z" fill="white"/>
<path d="M396.066 158.335L372.529 167.088L374.31 171.865L397.847 163.112L396.066 158.335Z" fill="white"/>
<path d="M233.787 135.252L228.705 135.509L232.681 214.167L237.762 213.911L233.787 135.252Z" fill="white"/>
<path d="M210.835 132.4L197.933 196.085L202.92 197.093L215.822 133.408L210.835 132.4Z" fill="white"/>
<path d="M196.899 126.466L161.432 197.611L165.986 199.876L201.454 128.731L196.899 126.466Z" fill="white"/>
<path d="M183.243 118.467L138.021 162.931L141.591 166.553L186.812 122.089L183.243 118.467Z" fill="white"/>
<path d="M236.847 133.503L233.605 137.419L258.018 157.584L261.26 153.668L236.847 133.503Z" fill="white"/>
<defs>
<filter id="filter0_d_0_1" x="0" y="107.13" width="146.354" height="146.189" filterUnits="userSpaceOnUse" color-interpolation-filters="sRGB">
<feFlood flood-opacity="0" result="BackgroundImageFix"/>
<feColorMatrix in="SourceAlpha" type="matrix" values="0 0 0 0 0 0 0 0 0 0 0 0 0 0 0 0 0 0 127 0" result="hardAlpha"/>
<feOffset dy="4"/>
<feGaussianBlur stdDeviation="2"/>
<feComposite in2="hardAlpha" operator="out"/>
<feColorMatrix type="matrix" values="0 0 0 0 0 0 0 0 0 0 0 0 0 0 0 0 0 0 0.25 0"/>
<feBlend mode="normal" in2="BackgroundImageFix" result="effect1_dropShadow_0_1"/>
<feBlend mode="normal" in="SourceGraphic" in2="effect1_dropShadow_0_1" result="shape"/>
</filter>
<filter id="filter1_d_0_1" x="154.578" y="0" width="146.354" height="146.189" filterUnits="userSpaceOnUse" color-interpolation-filters="sRGB">
<feFlood flood-opacity="0" result="BackgroundImageFix"/>
<feColorMatrix in="SourceAlpha" type="matrix" values="0 0 0 0 0 0 0 0 0 0 0 0 0 0 0 0 0 0 127 0" result="hardAlpha"/>
<feOffset dy="4"/>
<feGaussianBlur stdDeviation="2"/>
<feComposite in2="hardAlpha" operator="out"/>
<feColorMatrix type="matrix" values="0 0 0 0 0 0 0 0 0 0 0 0 0 0 0 0 0 0 0.25 0"/>
<feBlend mode="normal" in2="BackgroundImageFix" result="effect1_dropShadow_0_1"/>
<feBlend mode="normal" in="SourceGraphic" in2="effect1_dropShadow_0_1" result="shape"/>
</filter>
<filter id="filter2_d_0_1" x="239.078" y="125.811" width="146.354" height="146.189" filterUnits="userSpaceOnUse" color-interpolation-filters="sRGB">
<feFlood flood-opacity="0" result="BackgroundImageFix"/>
<feColorMatrix in="SourceAlpha" type="matrix" values="0 0 0 0 0 0 0 0 0 0 0 0 0 0 0 0 0 0 127 0" result="hardAlpha"/>
<feOffset dy="4"/>
<feGaussianBlur stdDeviation="2"/>
<feComposite in2="hardAlpha" operator="out"/>
<feColorMatrix type="matrix" values="0 0 0 0 0 0 0 0 0 0 0 0 0 0 0 0 0 0 0.25 0"/>
<feBlend mode="normal" in2="BackgroundImageFix" result="effect1_dropShadow_0_1"/>
<feBlend mode="normal" in="SourceGraphic" in2="effect1_dropShadow_0_1" result="shape"/>
</filter>
<filter id="filter3_d_0_1" x="384" y="132" width="115" height="116" filterUnits="userSpaceOnUse" color-interpolation-filters="sRGB">
<feFlood flood-opacity="0" result="BackgroundImageFix"/>
<feColorMatrix in="SourceAlpha" type="matrix" values="0 0 0 0 0 0 0 0 0 0 0 0 0 0 0 0 0 0 127 0" result="hardAlpha"/>
<feOffset dy="4"/>
<feGaussianBlur stdDeviation="2"/>
<feComposite in2="hardAlpha" operator="out"/>
<feColorMatrix type="matrix" values="0 0 0 0 0 0 0 0 0 0 0 0 0 0 0 0 0 0 0.25 0"/>
<feBlend mode="normal" in2="BackgroundImageFix" result="effect1_dropShadow_0_1"/>
<feBlend mode="normal" in="SourceGraphic" in2="effect1_dropShadow_0_1" result="shape"/>
</filter>
</defs>
</svg>
